<?xml version="1.0" encoding="utf-8"?>
<!-- Generator: Adobe Illustrator 28.0.0, SVG Export Plug-In . SVG Version: 6.00 Build 0)  -->
<svg version="1.1" id="Layer_1" xmlns="http://www.w3.org/2000/svg" xmlns:xlink="http://www.w3.org/1999/xlink" x="0px" y="0px"
	 viewBox="0 0 64 64" style="enable-background:new 0 0 64 64;" xml:space="preserve">
<style type="text/css">
	.st0{fill:#FFFFFF;}
</style>
<polygon class="st0" points="0,39.5 64,33 64,26.8 0,33.7 "/>
<g>
	<path class="st0" d="M18.5,15.8c0.9,0.2,1.4,0.6,1.5,1.1c0,0.2,0,0.5-0.1,1l-2.6,11.3c0,0.1-0.1,0.2-0.1,0.3
		c-0.1,0.1-0.2,0.3-0.5,0.6c-0.3,0.2-0.6,0.4-1,0.4c-0.4,0-0.7,0-1-0.2c-0.3-0.2-0.5-0.4-0.6-0.6l-0.2-0.3L11,23.2l-1.5,6.7
		c0,0,0,0.1,0,0.2c0,0.1-0.1,0.2-0.1,0.3c-0.1,0.2-0.2,0.3-0.3,0.4C9,31,8.8,31.1,8.6,31.2c-0.2,0.1-0.4,0.2-0.7,0.2
		c-0.4,0-0.7,0-1-0.2c-0.3-0.2-0.5-0.3-0.6-0.5l-0.2-0.3L1.2,19.9c-0.2-0.4-0.3-0.7-0.3-0.9c-0.1-0.5,0.3-1,1.2-1.4
		c0.4-0.2,0.7-0.3,0.9-0.3c0.4,0,0.6,0,0.8,0.2c0.2,0.2,0.4,0.5,0.5,0.9l2.9,6.3L8.7,18c0,0,0-0.1,0-0.1c0-0.1,0.1-0.2,0.1-0.3
		c0.1-0.2,0.2-0.3,0.3-0.4c0.1-0.1,0.2-0.2,0.5-0.4c0.2-0.1,0.4-0.2,0.7-0.2c0.4,0,0.8,0,1.1,0.2c0.3,0.2,0.5,0.4,0.6,0.6l0.2,0.3
		L15,24l1.5-6.8c0.1-0.3,0.1-0.5,0.2-0.7c0-0.2,0.2-0.3,0.3-0.5c0.2-0.2,0.4-0.2,0.6-0.3C17.8,15.7,18.2,15.7,18.5,15.8z"/>
	<path class="st0" d="M24.6,16.8c0-0.3,0-0.5,0-0.7c0-0.2,0-0.3,0.1-0.5c0.1-0.2,0.2-0.4,0.5-0.5c0.2-0.1,0.6-0.2,1-0.2
		c0.3,0,0.6,0,0.9,0c0.2,0,0.4,0.1,0.5,0.2c0.1,0.1,0.2,0.2,0.3,0.4c0.1,0.2,0.1,0.3,0.1,0.4c0,0.1,0,0.3,0.1,0.6l1.1,10.9
		c0,0.3,0,0.5,0,0.7c0,0.1,0,0.3-0.1,0.5c-0.1,0.2-0.2,0.4-0.5,0.5c-0.2,0.1-0.6,0.2-1,0.2c-0.3,0-0.6,0-0.9,0
		c-0.2,0-0.4-0.1-0.5-0.2S26,29,25.9,28.8c-0.1-0.2-0.1-0.3-0.1-0.4c0-0.1,0-0.3-0.1-0.6L24.6,16.8z"/>
	<path class="st0" d="M43.8,16c0.4,0.7,0.7,1.4,0.8,2.3c0.1,0.9,0,1.6-0.3,2.4c-0.3,0.7-0.6,1.3-1.1,1.8c-0.5,0.5-1,0.8-1.6,1.1
		C41,23.8,40.5,24,39.9,24l-2.5,0.3l0.2,2.2c0,0.3,0,0.5,0,0.7c0,0.2,0,0.3-0.1,0.5c-0.1,0.2-0.2,0.4-0.5,0.5
		c-0.2,0.1-0.6,0.2-1,0.2c-0.3,0-0.6,0-0.9,0c-0.2,0-0.4-0.1-0.5-0.2c-0.1-0.1-0.2-0.2-0.3-0.4c-0.1-0.2-0.1-0.3-0.1-0.4
		c0-0.1,0-0.3-0.1-0.6L33,16c0-0.3,0-0.5,0-0.7s0-0.3,0.1-0.5c0.1-0.2,0.2-0.4,0.5-0.5c0.2-0.1,0.6-0.2,1-0.2l4.2-0.4
		c0.6-0.1,1.1,0,1.7,0.1c0.6,0.2,1.2,0.4,1.8,0.8C42.9,14.8,43.4,15.4,43.8,16z M41.1,18.6c-0.1-0.6-0.3-1-0.7-1.2
		c-0.4-0.3-0.8-0.4-1.2-0.3l-2.5,0.3l0.4,3.5l2.5-0.3c0.4,0,0.8-0.2,1.1-0.6C41,19.7,41.2,19.2,41.1,18.6z"/>
	<path class="st0" d="M53.4,23.1l6.1-0.6c0.3,0,0.5,0,0.7,0c0.2,0,0.3,0,0.5,0.1c0.2,0.1,0.4,0.2,0.5,0.5c0.1,0.2,0.2,0.6,0.2,1
		c0,0.3,0,0.6,0,0.9c0,0.2-0.1,0.4-0.2,0.5c-0.1,0.1-0.2,0.2-0.4,0.3s-0.3,0.1-0.4,0.1c-0.1,0-0.3,0-0.6,0.1L52,26.8
		c-0.3,0-0.6,0-0.9,0s-0.4-0.1-0.5-0.2s-0.2-0.2-0.3-0.4c-0.1-0.2-0.1-0.3-0.1-0.4c0-0.1,0-0.3-0.1-0.6l-1.1-10.9
		c-0.1-0.7,0-1.1,0.2-1.4c0.2-0.3,0.7-0.4,1.4-0.5l7.8-0.8c0.3,0,0.5,0,0.7,0c0.2,0,0.3,0,0.5,0.1c0.2,0.1,0.4,0.2,0.5,0.5
		s0.2,0.6,0.2,1c0,0.3,0,0.6,0,0.9s-0.1,0.4-0.2,0.5c-0.1,0.1-0.2,0.2-0.4,0.3c-0.2,0.1-0.3,0.1-0.4,0.1c-0.1,0-0.3,0-0.6,0.1
		l-6,0.6l0.2,2l3.9-0.4c0.3,0,0.5,0,0.7,0c0.2,0,0.3,0,0.5,0.1c0.2,0.1,0.4,0.2,0.5,0.5c0.1,0.2,0.2,0.6,0.2,1c0,0.3,0,0.6,0,0.9
		c0,0.2-0.1,0.4-0.2,0.5c-0.1,0.1-0.2,0.2-0.4,0.3s-0.3,0.1-0.5,0.1c-0.1,0-0.3,0-0.6,0.1l-3.9,0.4L53.4,23.1z"/>
</g>
<g>
	<path class="st0" d="M2.5,40.6l10.2-1.1c0.2,0,0.4,0,0.5,0c0.1,0,0.2,0,0.4,0.1c0.2,0.1,0.3,0.2,0.4,0.4c0.1,0.2,0.1,0.4,0.2,0.8
		c0,0.3,0,0.6,0,0.8c0,0.2-0.1,0.3-0.3,0.4c-0.1,0.1-0.3,0.1-0.4,0.2c-0.1,0-0.3,0.1-0.5,0.1l-3.5,0.4l1,9.2c0,0.3,0,0.5,0,0.6
		c0,0.1,0,0.3-0.1,0.5c-0.1,0.2-0.2,0.3-0.4,0.4c-0.2,0.1-0.5,0.2-0.9,0.2c-0.4,0-0.7,0-0.9,0c-0.2-0.1-0.4-0.2-0.5-0.3
		c-0.1-0.2-0.2-0.3-0.2-0.5c0-0.1-0.1-0.3-0.1-0.6l-1-9.2l-3.5,0.4c-0.2,0-0.4,0-0.5,0c-0.1,0-0.3,0-0.4-0.1
		c-0.2-0.1-0.3-0.2-0.4-0.4S1.4,42.3,1.3,42c0-0.3,0-0.6,0-0.8c0-0.2,0.1-0.3,0.3-0.4c0.1-0.1,0.3-0.1,0.4-0.2
		C2.1,40.6,2.3,40.6,2.5,40.6z"/>
	<path class="st0" d="M23.5,38.2c1.8-0.2,3.4,0.3,4.9,1.5c1.5,1.2,2.3,2.8,2.5,4.8c0.2,1.9-0.3,3.6-1.4,5c-1.1,1.5-2.6,2.3-4.4,2.5
		c-1.9,0.2-3.6-0.3-5-1.5c-1.4-1.2-2.3-2.7-2.5-4.6c-0.1-1,0-2,0.2-2.9c0.3-0.9,0.7-1.7,1.2-2.4c0.5-0.7,1.2-1.2,2-1.6
		C21.8,38.6,22.6,38.3,23.5,38.2z M24.6,48.8c0.9-0.1,1.6-0.5,2.3-1.2c0.6-0.7,0.9-1.7,0.8-2.8c-0.1-1.1-0.6-1.9-1.3-2.5
		c-0.8-0.6-1.6-0.9-2.4-0.8c-0.9,0.1-1.6,0.5-2.3,1.3c-0.6,0.8-0.9,1.7-0.8,2.8c0.1,1.1,0.6,1.9,1.3,2.5
		C22.9,48.6,23.8,48.9,24.6,48.8z"/>
	<path class="st0" d="M40.9,36.4c1.8-0.2,3.4,0.3,4.9,1.5c1.5,1.2,2.3,2.8,2.5,4.8c0.2,1.9-0.3,3.6-1.4,5c-1.1,1.5-2.6,2.3-4.4,2.5
		c-1.9,0.2-3.6-0.3-5-1.5c-1.4-1.2-2.3-2.7-2.5-4.6c-0.1-1,0-2,0.2-2.9c0.3-0.9,0.7-1.7,1.2-2.4c0.5-0.7,1.2-1.2,2-1.6
		C39.2,36.7,40,36.5,40.9,36.4z M42,46.9c0.9-0.1,1.6-0.5,2.3-1.2c0.6-0.7,0.9-1.7,0.8-2.8c-0.1-1.1-0.6-1.9-1.3-2.5
		c-0.8-0.6-1.6-0.9-2.4-0.8c-0.9,0.1-1.6,0.5-2.3,1.3c-0.6,0.8-0.9,1.7-0.8,2.8c0.1,1.1,0.6,1.9,1.3,2.5C40.4,46.8,41.2,47,42,46.9z
		"/>
	<path class="st0" d="M56.4,45.8l5-0.5c0.2,0,0.4,0,0.5,0c0.1,0,0.3,0,0.4,0.1c0.2,0.1,0.3,0.2,0.4,0.4c0.1,0.2,0.1,0.4,0.2,0.8
		c0,0.3,0,0.6,0,0.8s-0.1,0.4-0.3,0.4c-0.1,0.1-0.3,0.2-0.4,0.2c-0.1,0-0.3,0.1-0.5,0.1L55,48.6c-0.3,0-0.6,0-0.8,0
		c-0.2,0-0.4-0.1-0.5-0.2c-0.1-0.1-0.2-0.2-0.3-0.4c-0.1-0.2-0.1-0.3-0.1-0.4c0-0.1,0-0.3-0.1-0.5L52.2,37c0-0.3,0-0.5,0-0.6
		c0-0.1,0-0.3,0.1-0.5c0.1-0.2,0.2-0.3,0.5-0.4c0.2-0.1,0.5-0.2,0.9-0.2c0.3,0,0.6,0,0.8,0c0.2,0,0.4,0.1,0.5,0.2
		c0.1,0.1,0.2,0.2,0.3,0.4s0.1,0.3,0.1,0.4s0,0.3,0.1,0.5L56.4,45.8z"/>
</g>
</svg>
