<?xml version="1.0" encoding="utf-8"?>
<!-- Generator: Adobe Illustrator 28.0.0, SVG Export Plug-In . SVG Version: 6.00 Build 0)  -->
<svg version="1.1" id="Layer_1" xmlns="http://www.w3.org/2000/svg" xmlns:xlink="http://www.w3.org/1999/xlink" x="0px" y="0px"
	 viewBox="0 0 32 32" style="enable-background:new 0 0 32 32;" xml:space="preserve">
<style type="text/css">
	.st0{fill:#FFFFFF;}
</style>
<path class="st0" d="M9.7,1.6l0.7,0.1c0.9,0.1,1.6,0.9,1.5,1.8l-2,24.6C9.8,29,9,29.7,8.1,29.6l-0.7-0.1c-0.9-0.1-1.6-0.9-1.5-1.8
	l2-24.6C8,2.2,8.8,1.5,9.7,1.6z"/>
<path class="st0" d="M23.6,2.8l0.7,0.1c0.9,0.1,1.6,0.9,1.5,1.8l-2,24.6c-0.1,0.9-0.9,1.6-1.8,1.5l-0.7-0.1
	c-0.9-0.1-1.6-0.9-1.5-1.8l2-24.6C21.9,3.4,22.7,2.7,23.6,2.8z"/>
<path class="st0" d="M1.3,22.3l0.1-0.7c0.1-0.9,0.9-1.6,1.8-1.5l24.6,2c0.9,0.1,1.6,0.9,1.5,1.8l-0.1,0.7c-0.1,0.9-0.9,1.6-1.8,1.5
	l-24.6-2C1.9,24.1,1.2,23.3,1.3,22.3z"/>
<path class="st0" d="M2.4,8.4l0.1-0.7c0.1-0.9,0.9-1.6,1.8-1.5l24.6,2c0.9,0.1,1.6,0.9,1.5,1.8l-0.1,0.7c-0.1,0.9-0.9,1.6-1.8,1.5
	l-24.6-2C3,10.1,2.4,9.3,2.4,8.4z"/>
</svg>
