<?xml version="1.0" encoding="utf-8"?>
<!-- Generator: Adobe Illustrator 28.0.0, SVG Export Plug-In . SVG Version: 6.00 Build 0)  -->
<svg version="1.1" id="Layer_1" xmlns="http://www.w3.org/2000/svg" xmlns:xlink="http://www.w3.org/1999/xlink" x="0px" y="0px"
	 viewBox="0 0 32 32" style="enable-background:new 0 0 32 32;" xml:space="preserve">
<style type="text/css">
	.st0{fill:#FFFFFF;}
</style>
<polygon class="st0" points="1.6,7 1.6,1.6 6.9,1.6 30.4,25.4 30.4,30.4 24.9,30.4 "/>
<path class="st0" d="M5,17.3c-0.9,0-1.6,0.8-1.6,1.6s0.8,1.6,1.6,1.6c3.6,0,6.5,2.9,6.5,6.5c0,0.9,0.8,1.6,1.6,1.6s1.6-0.8,1.6-1.6
	C14.7,21.6,10.4,17.3,5,17.3z M5,23.7c-1.8,0-3.2,1.4-3.2,3.2s1.4,3.2,3.2,3.2s3.2-1.4,3.2-3.2S6.8,23.7,5,23.7z"/>
</svg>
