<?xml version="1.0" encoding="utf-8"?>
<!-- Generator: Adobe Illustrator 28.0.0, SVG Export Plug-In . SVG Version: 6.00 Build 0)  -->
<svg version="1.1" id="Layer_1" xmlns="http://www.w3.org/2000/svg" xmlns:xlink="http://www.w3.org/1999/xlink" x="0px" y="0px"
	 viewBox="0 0 32 32" style="enable-background:new 0 0 32 32;" xml:space="preserve">
<style type="text/css">
	.st0{fill:#FFFFFF;}
</style>
<path id="Palette_1_" class="st0" d="M22.7,22.1c0-0.8-1.2-3.1-1.2-4c0-1,0.6-2.3,1.9,0.2c0.8,1.5,1.9,0.5,2.1-0.2
	c0.4-2.1-0.2-4.7-2.2-7.2c-3.5-4.4-9.7-5.5-13.7-2.7c-4.1,2.9-4.2,9.4-0.4,13.1c3.4,3.4,8,4.9,11.9,3.3
	C21.4,24.5,22.8,23.9,22.7,22.1z M11.7,9.5C12.5,9,13.5,9.1,14,9.9c0.5,0.7,0.3,1.8-0.4,2.3c-0.7,0.5-1.8,0.3-2.3-0.4
	S11,10,11.7,9.5z M8.5,16.1c-0.5-0.7-0.3-1.8,0.4-2.3c0.7-0.5,1.8-0.3,2.3,0.4c0.5,0.7,0.3,1.8-0.4,2.3C10.1,17,9.1,16.8,8.5,16.1z
	 M16.5,11.9c-0.5-0.7-0.3-1.8,0.4-2.3c0.7-0.5,1.8-0.3,2.3,0.4c0.5,0.7,0.3,1.8-0.4,2.3C18,12.8,17,12.6,16.5,11.9z M11,20.3
	c-0.5-0.7-0.3-1.8,0.4-2.3c0.7-0.5,1.8-0.3,2.3,0.4c0.5,0.7,0.3,1.8-0.4,2.3C12.5,21.2,11.5,21,11,20.3z"/>
<g>
	<polygon class="st0" points="27.1,22 21.8,27.4 24.9,30.4 30.4,30.4 30.4,25.4 	"/>
	<polygon class="st0" points="6.9,1.6 1.6,1.6 1.6,7 4.4,9.9 9.8,4.5 	"/>
</g>
</svg>
