<?xml version="1.0" encoding="utf-8"?>
<!-- Generator: Adobe Illustrator 28.0.0, SVG Export Plug-In . SVG Version: 6.00 Build 0)  -->
<svg version="1.1" id="Layer_1" xmlns="http://www.w3.org/2000/svg" xmlns:xlink="http://www.w3.org/1999/xlink" x="0px" y="0px"
	 viewBox="0 0 32 32" style="enable-background:new 0 0 32 32;" xml:space="preserve">
<style type="text/css">
	.st0{fill:#FFFFFF;}
</style>
<path id="Palette_1_" class="st0" d="M17.9,25.9c0-0.7-1.1-2.8-1.1-3.6c0-0.9,0.6-2.1,1.7,0.2c0.7,1.3,1.8,0.5,1.9-0.1
	c0.4-2-0.2-4.3-2-6.6c-3.2-4-8.8-5.1-12.5-2.4c-3.7,2.6-3.8,8.5-0.4,12c3.1,3.1,7.3,4.5,10.9,3C16.8,28,18,27.6,17.9,25.9z
	 M7.9,14.3c0.7-0.5,1.6-0.3,2.1,0.4c0.5,0.7,0.3,1.6-0.4,2.1c-0.7,0.5-1.6,0.3-2.1-0.4S7.3,14.8,7.9,14.3z M5,20.4
	c-0.5-0.7-0.3-1.6,0.4-2.1C6.1,17.8,7,18,7.5,18.7c0.5,0.7,0.3,1.6-0.4,2.1C6.4,21.2,5.5,21.1,5,20.4z M12.3,16.5
	c-0.5-0.7-0.3-1.6,0.4-2.1c0.7-0.5,1.6-0.3,2.1,0.4c0.5,0.7,0.3,1.6-0.4,2.1C13.7,17.4,12.7,17.2,12.3,16.5z M7.2,24.2
	c-0.5-0.7-0.3-1.6,0.4-2.1c0.7-0.5,1.6-0.3,2.1,0.4c0.5,0.7,0.3,1.6-0.4,2.1C8.6,25,7.7,24.9,7.2,24.2z"/>
<g>
	<polygon class="st0" points="27.1,22 21.8,27.4 24.9,30.4 30.4,30.4 30.4,25.4 	"/>
	<polygon class="st0" points="6.9,1.6 1.6,1.6 1.6,7 4.4,9.9 9.8,4.5 	"/>
</g>
<path class="st0" d="M30.3,7.2l0.2,1.3c0.1,0.5-0.3,1-0.8,1.1l-12.3,1.5c-0.5,0.1-1-0.3-1.1-0.8l-0.2-1.3c-0.1-0.5,0.3-1,0.8-1.1
	l12.3-1.5C29.8,6.3,30.2,6.7,30.3,7.2z"/>
</svg>
