<?xml version="1.0" encoding="utf-8"?>
<!-- Generator: Adobe Illustrator 28.0.0, SVG Export Plug-In . SVG Version: 6.00 Build 0)  -->
<svg version="1.1" id="Layer_1" xmlns="http://www.w3.org/2000/svg" xmlns:xlink="http://www.w3.org/1999/xlink" x="0px" y="0px"
	 viewBox="0 0 32 32" style="enable-background:new 0 0 32 32;" xml:space="preserve">
<style type="text/css">
	.st0{fill:#FFFFFF;}
</style>
<polygon class="st0" points="12.5,5 12.5,1.6 15.8,1.6 30.4,16.4 30.4,19.5 27,19.5 "/>
<path class="st0" d="M5,10.9c-0.9,0-1.6,0.7-1.6,1.6s0.7,1.6,1.6,1.6c7.2,0,12.9,5.8,12.9,12.9c0,0.9,0.7,1.6,1.6,1.6
	c0.9,0,1.6-0.7,1.6-1.6C21.1,18.1,13.9,10.9,5,10.9z M5,17.3c-0.9,0-1.6,0.7-1.6,1.6s0.7,1.6,1.6,1.6c3.5,0,6.5,2.9,6.5,6.5
	c0,0.9,0.7,1.6,1.6,1.6s1.6-0.7,1.6-1.6C14.6,21.6,10.3,17.3,5,17.3z M5,23.7c-1.8,0-3.2,1.4-3.2,3.2s1.4,3.2,3.2,3.2
	s3.2-1.4,3.2-3.2S6.7,23.7,5,23.7z"/>
</svg>
