<?xml version="1.0" encoding="utf-8"?>
<!-- Generator: Adobe Illustrator 28.0.0, SVG Export Plug-In . SVG Version: 6.00 Build 0)  -->
<svg version="1.1" id="Layer_1" xmlns="http://www.w3.org/2000/svg" xmlns:xlink="http://www.w3.org/1999/xlink" x="0px" y="0px"
	 viewBox="0 0 32 32" style="enable-background:new 0 0 32 32;" xml:space="preserve">
<style type="text/css">
	.st0{fill:none;stroke:#FFFFFF;stroke-width:3;stroke-linecap:round;stroke-linejoin:round;stroke-miterlimit:133.3333;}
	.st1{fill:#FFFFFF;}
</style>
<path class="st0" d="M12.1,4.8h-0.8C9.4,4.8,8.1,6.2,8.1,8v3.2c0,1.6-1,4.8-4.9,4.8c1.7,0,4.9,1,4.9,4.8V24c0,1.8,1.4,3.2,3.2,3.2
	h0.8 M20.1,4.8h0.8c1.8,0,3.2,1.4,3.2,3.2v3.2c0,1.6,1,4.8,4.8,4.8c-1.6,0-4.8,1-4.8,4.8V24c0,1.8-1.4,3.2-3.2,3.2h-0.8"/>
<path id="path3206" class="st1" d="M19.1,16.7h-6.2c-0.2,0-0.3,0.1-0.3,0.3v0.1c0,0.2,0.1,0.3,0.3,0.3h6.2c0.2,0,0.3-0.1,0.3-0.3V17
	C19.4,16.8,19.3,16.7,19.1,16.7z M19.1,18h-6.2c-0.2,0-0.3,0.1-0.3,0.3v0.1c0,0.2,0.1,0.3,0.3,0.3h6.2c0.2,0,0.3-0.1,0.3-0.3v-0.1
	C19.4,18.2,19.3,18,19.1,18z M19.1,19.4h-6.2c-0.2,0-0.3,0.1-0.3,0.3v0.1c0,0.2,0.1,0.3,0.3,0.3h6.2c0.2,0,0.3-0.1,0.3-0.3v-0.1
	C19.4,19.5,19.3,19.4,19.1,19.4z M19.4,10.6h-0.3c-0.2,0-0.4,0.2-0.4,0.4v3.7c0,0.2-0.2,0.4-0.4,0.4h-4.7c-0.2,0-0.4-0.2-0.4-0.4
	v-3.7c0-0.2-0.2-0.4-0.4-0.4h-1.5c-0.5,0-0.9,0.4-0.9,0.9v9.1c0,0.5,0.4,0.9,0.9,0.9h9.1c0.5,0,0.9-0.4,0.9-0.9v-7.9L19.4,10.6z
	 M19.8,20.8h-7.6c-0.2,0-0.3-0.1-0.3-0.3v-4.2c0-0.2,0.1-0.3,0.3-0.3h7.6c0.2,0,0.3,0.1,0.3,0.3v4.2C20.1,20.6,20,20.8,19.8,20.8z
	 M17.7,11.2h-0.6c-0.2,0-0.4,0.2-0.4,0.4v2.3c0,0.2,0.2,0.4,0.4,0.4h0.6c0.2,0,0.4-0.2,0.4-0.4v-2.3C18,11.4,17.9,11.2,17.7,11.2z"
	/>
</svg>
