<?xml version="1.0" encoding="utf-8"?>
<!-- Generator: Adobe Illustrator 28.0.0, SVG Export Plug-In . SVG Version: 6.00 Build 0)  -->
<svg version="1.1" id="Layer_1" xmlns="http://www.w3.org/2000/svg" xmlns:xlink="http://www.w3.org/1999/xlink" x="0px" y="0px"
	 viewBox="0 0 32 32" style="enable-background:new 0 0 32 32;" xml:space="preserve">
<style type="text/css">
	.st0{fill:#FFFFFF;}
</style>
<path id="path3206" class="st0" d="M20.3,17h-8.6c-0.2,0-0.4,0.2-0.4,0.4v0.1c0,0.2,0.2,0.4,0.4,0.4h8.6c0.2,0,0.4-0.2,0.4-0.4v-0.1
	C20.7,17.1,20.5,17,20.3,17z M20.3,18.8h-8.6c-0.2,0-0.4,0.2-0.4,0.4v0.1c0,0.2,0.2,0.4,0.4,0.4h8.6c0.2,0,0.4-0.2,0.4-0.4v-0.1
	C20.7,19,20.5,18.8,20.3,18.8z M20.3,20.7h-8.6c-0.2,0-0.4,0.2-0.4,0.4v0.1c0,0.2,0.2,0.4,0.4,0.4h8.6c0.2,0,0.4-0.2,0.4-0.4v-0.1
	C20.7,20.9,20.5,20.7,20.3,20.7z M20.7,8.5h-0.4c-0.3,0-0.5,0.2-0.5,0.5v5.1c0,0.3-0.2,0.5-0.5,0.5h-6.5c-0.3,0-0.5-0.2-0.5-0.5V9
	c0-0.3-0.2-0.5-0.5-0.5h-2c-0.7,0-1.2,0.5-1.2,1.2v12.5c0,0.7,0.5,1.2,1.2,1.2h12.5c0.7,0,1.2-0.5,1.2-1.2V11.3L20.7,8.5z
	 M21.2,22.6H10.8c-0.2,0-0.4-0.2-0.4-0.4v-5.8c0-0.2,0.2-0.4,0.4-0.4h10.4c0.2,0,0.4,0.2,0.4,0.4v5.8C21.6,22.4,21.4,22.6,21.2,22.6
	z M18.3,9.5h-0.9C17.2,9.5,17,9.7,17,10v3.2c0,0.3,0.2,0.5,0.5,0.5h0.9c0.3,0,0.5-0.2,0.5-0.5V10C18.8,9.7,18.6,9.5,18.3,9.5z"/>
<g>
	<path class="st0" d="M15.9,4.7c6.3,0,11.5,5.2,11.5,11.5s-5.2,11.5-11.5,11.5S4.4,22.5,4.4,16.2S9.6,4.7,15.9,4.7 M15.9,2.2
		c-7.7,0-14,6.3-14,14s6.3,14,14,14s14-6.3,14-14S23.6,2.2,15.9,2.2L15.9,2.2z"/>
</g>
</svg>
