<?xml version="1.0" encoding="utf-8"?>
<!-- Generator: Adobe Illustrator 28.0.0, SVG Export Plug-In . SVG Version: 6.00 Build 0)  -->
<svg version="1.1" id="Layer_1" xmlns="http://www.w3.org/2000/svg" xmlns:xlink="http://www.w3.org/1999/xlink" x="0px" y="0px"
	 viewBox="0 0 32 32" style="enable-background:new 0 0 32 32;" xml:space="preserve">
<style type="text/css">
	.st0{fill:#FFFFFF;}
</style>
<g>
	<path class="st0" d="M23,18.2h1.1c0.3,0,0.6-0.3,0.6-0.6v-4c0-0.3-0.3-0.6-0.6-0.6H23c-0.3,0-0.6,0.3-0.6,0.6v4
		C22.3,18,22.6,18.2,23,18.2z"/>
	<path class="st0" d="M26.5,27H15.8c-0.3,0-0.5,0.2-0.5,0.5v0.2c0,0.3,0.2,0.5,0.5,0.5h10.7c0.3,0,0.5-0.2,0.5-0.5v-0.2
		C27,27.3,26.8,27,26.5,27z"/>
	<path class="st0" d="M26.5,24.7H15.8c-0.3,0-0.5,0.2-0.5,0.5v0.2c0,0.3,0.2,0.5,0.5,0.5h10.7c0.3,0,0.5-0.2,0.5-0.5v-0.2
		C27,24.9,26.8,24.7,26.5,24.7z"/>
	<path class="st0" d="M27,11.8h-0.6c-0.3,0-0.6,0.3-0.6,0.6v6.4c0,0.3-0.3,0.6-0.6,0.6h-8.2c-0.3,0-0.6-0.3-0.6-0.6v-6.4
		c0-0.3-0.3-0.6-0.6-0.6h-0.6l0.3,2.5c0.1,0.7-0.5,1.3-1.2,1.2l-2.6-0.3V29c0,0.9,0.7,1.6,1.6,1.6H29c0.9,0,1.6-0.7,1.6-1.6V15.3
		L27,11.8z M28.2,28.9c0,0.3-0.2,0.5-0.5,0.5H14.6c-0.3,0-0.5-0.2-0.5-0.5v-7.2c0-0.3,0.2-0.5,0.5-0.5h13.1c0.3,0,0.5,0.2,0.5,0.5
		V28.9z"/>
	<path class="st0" d="M26.5,22.3H15.8c-0.3,0-0.5,0.2-0.5,0.5V23c0,0.3,0.2,0.5,0.5,0.5h10.7c0.3,0,0.5-0.2,0.5-0.5v-0.2
		C27,22.6,26.8,22.3,26.5,22.3z"/>
	<path class="st0" d="M13.3,11.8h2L14.2,1.6L9.5,6.3L5.3,2.1C4.6,1.5,3.6,1.5,3,2.1L2.1,3c-0.6,0.6-0.6,1.6,0,2.3l4.2,4.2l-4.6,4.6
		l10.1,1.1v-1.9C11.8,12.5,12.5,11.8,13.3,11.8z"/>
</g>
</svg>
