<?xml version="1.0" encoding="utf-8"?>
<!-- Generator: Adobe Illustrator 28.1.0, SVG Export Plug-In . SVG Version: 6.00 Build 0)  -->
<svg version="1.1" id="Layer_1" xmlns="http://www.w3.org/2000/svg" xmlns:xlink="http://www.w3.org/1999/xlink" x="0px" y="0px"
	 viewBox="0 0 32 32" style="enable-background:new 0 0 32 32;" xml:space="preserve">
<style type="text/css">
	.st0{fill-rule:evenodd;clip-rule:evenodd;fill:#FFFFFF;}
</style>
<path class="st0" d="M21.2,10.8c0.1,0.1,0.2,0.2,0.3,0.3l5.3,9.3l0.1-0.1c0.3-0.1,0.6,0,0.7,0.2l2.6,5c0.1,0.3,0,0.6-0.2,0.7
	l-0.1,0.1l0.3,0.5c0.2,0.5,0.1,1-0.4,1.3c-0.5,0.2-1,0.1-1.3-0.4l0,0l-0.3-0.5l-0.1,0c-0.3,0.1-0.6,0-0.7-0.2l-2.6-5
	c-0.1-0.3,0-0.6,0.2-0.7l0.1,0l-3.3-5.6c-0.2-0.3-0.6-0.2-0.6,0.2v6.4h0.1c0.3,0,0.5,0.2,0.5,0.5l0,0v5.6c0,0.3-0.2,0.5-0.5,0.5
	h-0.1v0.6c0,0.5-0.5,0.9-1,0.9c-0.5,0-0.8-0.4-0.9-0.9v-0.6H19c-0.3,0-0.5-0.2-0.5-0.5v-5.6c0-0.3,0.2-0.5,0.5-0.5h0.2v-6.9
	c0-0.4-0.5-0.5-0.6-0.2l-3,6.1l0.1,0c0.3,0.1,0.3,0.4,0.2,0.7l-2.6,5c-0.1,0.3-0.4,0.3-0.7,0.2l-0.1,0l-0.3,0.5
	c-0.2,0.5-0.8,0.6-1.3,0.4c-0.5-0.2-0.6-0.8-0.4-1.3h0l0.3-0.5l-0.1-0.1c-0.3-0.1-0.3-0.4-0.2-0.7l2.6-5c0.1-0.3,0.4-0.3,0.7-0.2
	l0.1,0.1l4.7-9.4c0.1-0.1,0.2-0.2,0.3-0.3"/>
<path class="st0" d="M22.4,5.6h-4.9c-0.4,0-0.7,0.2-0.9,0.5l-2.4,4.2c-0.2,0.3-0.2,0.7,0,1l2.4,4.2c0.2,0.3,0.5,0.5,0.9,0.5h4.9
	c0.4,0,0.7-0.2,0.9-0.5l2.4-4.2c0.2-0.3,0.2-0.7,0-1l-2.4-4.2C23.1,5.8,22.8,5.6,22.4,5.6z"/>
<path class="st0" d="M16.4,2.9l-7.3,12c-0.3,0.5-0.9,0.6-1.4,0.3l-1.7-1c-0.5-0.3-0.6-0.9-0.3-1.4l7.3-12c0.3-0.5,0.9-0.6,1.4-0.3
	l1.7,1C16.5,1.8,16.6,2.4,16.4,2.9z"/>
<path class="st0" d="M7.5,15.2l-6.4-3.9C0.6,11,0.5,10.4,0.8,9.9l1-1.7c0.3-0.5,0.9-0.6,1.4-0.3l6.4,3.9c0.5,0.3,0.6,0.9,0.3,1.4
	l-1,1.7C8.6,15.4,8,15.5,7.5,15.2z"/>
</svg>
