<?xml version="1.0" encoding="utf-8"?>
<!-- Generator: Adobe Illustrator 28.1.0, SVG Export Plug-In . SVG Version: 6.00 Build 0)  -->
<svg version="1.1" id="Layer_1" xmlns="http://www.w3.org/2000/svg" xmlns:xlink="http://www.w3.org/1999/xlink" x="0px" y="0px"
	 viewBox="0 0 32 32" style="enable-background:new 0 0 32 32;" xml:space="preserve">
<style type="text/css">
	.st0{fill-rule:evenodd;clip-rule:evenodd;fill:#FFFFFF;}
	.st1{fill:#FFFFFF;}
</style>
<path class="st0" d="M16.4,2.9l-7.3,12c-0.3,0.5-0.9,0.6-1.4,0.3l-1.7-1c-0.5-0.3-0.6-0.9-0.3-1.4l7.3-12c0.3-0.5,0.9-0.6,1.4-0.3
	l1.7,1C16.5,1.8,16.6,2.4,16.4,2.9z"/>
<path class="st0" d="M7.5,15.2l-6.4-3.9C0.6,11,0.5,10.4,0.8,9.9l1-1.7c0.3-0.5,0.9-0.6,1.4-0.3l6.4,3.9c0.5,0.3,0.6,0.9,0.3,1.4
	l-1,1.7C8.6,15.4,8,15.5,7.5,15.2z"/>
<path class="st0" d="M14.8,26.2v-6.6h0.1c0.3,0,0.5-0.2,0.5-0.5l0,0v-5.4c0-0.3-0.2-0.5-0.5-0.5h-0.1v-0.6c0-0.5-0.5-0.9-1-0.9
	c-0.4,0-0.8,0.4-0.8,0.8v0.6h-0.2c-0.3,0-0.5,0.2-0.5,0.5v5.4c0,0.3,0.2,0.5,0.5,0.5H13v6.6"/>
<path class="st1" d="M12.3,26.5h17.1c0.5,0,0.9,0.4,0.9,0.9v2.3c0,0.5-0.4,0.9-0.9,0.9H12.3c-0.5,0-0.9-0.4-0.9-0.9v-2.3
	C11.5,26.9,11.9,26.5,12.3,26.5z"/>
<path class="st0" d="M21.8,26.2v-6.6h0.1c0.3,0,0.5-0.2,0.5-0.5l0,0v-5.4c0-0.3-0.2-0.5-0.5-0.5h-0.1v-0.6c0-0.5-0.5-0.9-1-0.8
	c-0.4,0-0.8,0.4-0.8,0.8v0.6h-0.2c-0.3,0-0.5,0.2-0.5,0.5v5.4c0,0.3,0.2,0.5,0.5,0.5H20v6.6"/>
<path class="st0" d="M28.8,26.2v-6.6h0.1c0.3,0,0.5-0.2,0.5-0.5l0,0v-5.4c0-0.3-0.2-0.5-0.5-0.5h-0.1v-0.6c0-0.5-0.5-0.9-1-0.8
	c-0.4,0-0.8,0.4-0.8,0.8v0.6h-0.2c-0.3,0-0.5,0.2-0.5,0.5v5.4c0,0.3,0.2,0.5,0.5,0.5H27v6.6"/>
</svg>
