<?xml version="1.0" encoding="utf-8"?>
<!-- Generator: Adobe Illustrator 28.1.0, SVG Export Plug-In . SVG Version: 6.00 Build 0)  -->
<svg version="1.1" id="Layer_1" xmlns="http://www.w3.org/2000/svg" xmlns:xlink="http://www.w3.org/1999/xlink" x="0px" y="0px"
	 viewBox="0 0 32 32" style="enable-background:new 0 0 32 32;" xml:space="preserve">
<style type="text/css">
	.st0{fill-rule:evenodd;clip-rule:evenodd;fill:#FFFFFF;}
	.st1{fill:#FFFFFF;}
</style>
<path class="st0" d="M14.9,26.3v-6.6H15c0.3,0,0.5-0.2,0.5-0.5l0,0v-5.4c0-0.3-0.2-0.5-0.5-0.5h-0.1v-0.6c0-0.5-0.5-0.9-1-0.9
	c-0.4,0-0.8,0.4-0.8,0.8v0.6h-0.2c-0.3,0-0.5,0.2-0.5,0.5v5.4c0,0.3,0.2,0.5,0.5,0.5h0.2v6.6"/>
<path class="st1" d="M12.4,26.6h17.1c0.5,0,0.9,0.4,0.9,0.9v2.3c0,0.5-0.4,0.9-0.9,0.9H12.4c-0.5,0-0.9-0.4-0.9-0.9v-2.3
	C11.5,26.9,11.9,26.6,12.4,26.6z"/>
<path class="st0" d="M21.9,26.3v-6.6H22c0.3,0,0.5-0.2,0.5-0.5l0,0v-5.4c0-0.3-0.2-0.5-0.5-0.5h-0.1v-0.6c0-0.5-0.5-0.9-1-0.8
	c-0.4,0-0.8,0.4-0.8,0.8v0.6h-0.2c-0.3,0-0.5,0.2-0.5,0.5v5.4c0,0.3,0.2,0.5,0.5,0.5h0.2v6.6"/>
<path class="st0" d="M28.8,26.3v-6.6h0.1c0.3,0,0.5-0.2,0.5-0.5l0,0v-5.4c0-0.3-0.2-0.5-0.5-0.5h-0.1v-0.6c0-0.5-0.5-0.9-1-0.8
	c-0.4,0-0.8,0.4-0.8,0.8v0.6h-0.2c-0.3,0-0.5,0.2-0.5,0.5v5.4c0,0.3,0.2,0.5,0.5,0.5H27v6.6"/>
<path class="st0" d="M12.4,11.1L2.3,4.6C1.7,4.2,1.6,3.5,1.9,2.9l1.1-1.7c0.4-0.6,1.1-0.7,1.7-0.4l10.1,6.6c0.6,0.4,0.7,1.1,0.4,1.7
	L14,10.8C13.7,11.3,12.9,11.5,12.4,11.1z"/>
<path class="st0" d="M14.8,10.4L4.7,16.9c-0.6,0.4-1.3,0.2-1.7-0.4l-1.1-1.7c-0.4-0.6-0.2-1.3,0.4-1.7l10.1-6.6
	C12.9,6.3,13.7,6.4,14,7l1.1,1.7C15.5,9.3,15.4,10,14.8,10.4z"/>
</svg>
