<?xml version="1.0" encoding="utf-8"?>
<!-- Generator: Adobe Illustrator 28.1.0, SVG Export Plug-In . SVG Version: 6.00 Build 0)  -->
<svg version="1.1" id="Layer_1" xmlns="http://www.w3.org/2000/svg" xmlns:xlink="http://www.w3.org/1999/xlink" x="0px" y="0px"
	 viewBox="0 0 32 32" style="enable-background:new 0 0 32 32;" xml:space="preserve">
<style type="text/css">
	.st0{fill-rule:evenodd;clip-rule:evenodd;fill:#FFFFFF;}
	.st1{fill:#FFFFFF;}
</style>
<path class="st0" d="M12.4,3.3l-8,10.1c-0.3,0.4-1,0.5-1.4,0.2l-1.4-1.1c-0.4-0.3-0.5-1-0.2-1.4L9.5,1c0.3-0.4,1-0.5,1.4-0.2
	l1.4,1.1C12.7,2.2,12.7,2.9,12.4,3.3z"/>
<path class="st0" d="M10.8,12.6l-10.1-8c-0.4-0.3-0.5-1-0.2-1.4l1.1-1.4c0.3-0.4,1-0.5,1.4-0.2l10.1,8c0.4,0.3,0.5,1,0.2,1.4
	l-1.1,1.4C11.9,12.9,11.3,13,10.8,12.6z"/>
<path class="st0" d="M14.9,26.3v-6.6H15c0.3,0,0.5-0.2,0.5-0.5l0,0v-5.4c0-0.3-0.2-0.5-0.5-0.5h-0.1v-0.6c0-0.5-0.5-0.9-1-0.9
	c-0.4,0-0.8,0.4-0.8,0.8v0.6h-0.2c-0.3,0-0.5,0.2-0.5,0.5v5.4c0,0.3,0.2,0.5,0.5,0.5h0.2v6.6"/>
<path class="st1" d="M12.4,26.6h17.1c0.5,0,0.9,0.4,0.9,0.9v2.3c0,0.5-0.4,0.9-0.9,0.9H12.4c-0.5,0-0.9-0.4-0.9-0.9v-2.3
	C11.5,26.9,11.9,26.6,12.4,26.6z"/>
<path class="st0" d="M21.9,26.3v-6.6H22c0.3,0,0.5-0.2,0.5-0.5l0,0v-5.4c0-0.3-0.2-0.5-0.5-0.5h-0.1v-0.6c0-0.5-0.5-0.9-1-0.8
	c-0.4,0-0.8,0.4-0.8,0.8v0.6h-0.2c-0.3,0-0.5,0.2-0.5,0.5v5.4c0,0.3,0.2,0.5,0.5,0.5h0.2v6.6"/>
<path class="st0" d="M28.8,26.3v-6.6h0.1c0.3,0,0.5-0.2,0.5-0.5l0,0v-5.4c0-0.3-0.2-0.5-0.5-0.5h-0.1v-0.6c0-0.5-0.5-0.9-1-0.8
	c-0.4,0-0.8,0.4-0.8,0.8v0.6h-0.2c-0.3,0-0.5,0.2-0.5,0.5v5.4c0,0.3,0.2,0.5,0.5,0.5H27v6.6"/>
</svg>
