<?xml version="1.0" encoding="utf-8"?>
<!-- Generator: Adobe Illustrator 28.1.0, SVG Export Plug-In . SVG Version: 6.00 Build 0)  -->
<svg version="1.1" id="Layer_1" xmlns="http://www.w3.org/2000/svg" xmlns:xlink="http://www.w3.org/1999/xlink" x="0px" y="0px"
	 viewBox="0 0 32 32" style="enable-background:new 0 0 32 32;" xml:space="preserve">
<style type="text/css">
	.st0{fill:#FFFFFF;}
	.st1{fill:none;stroke:#FFFFFF;stroke-width:3;stroke-miterlimit:10;}
</style>
<path class="st0" d="M18.4,7.4c-2.5,0-4.5,1.9-4.7,4.3C11.8,10,8.8,10.1,7.1,12s-1.6,4.9,0.3,6.6c0.5,0.4,1,0.8,1.7,1V23
	c0,0.9,0.7,1.6,1.6,1.6h9.3c0.9,0,1.6-0.7,1.6-1.6v-1.6l4.7,3.1v-9.3l-4.7,3.1v-2.8c1.9-1.7,2.1-4.7,0.3-6.6
	C20.9,8,19.7,7.4,18.4,7.4z"/>
<path class="st1" d="M27.5,29.5H4.5c-1.1,0-2-0.9-2-2V4.5c0-1.1,0.9-2,2-2h22.9c1.1,0,2,0.9,2,2v22.9C29.5,28.6,28.6,29.5,27.5,29.5
	z"/>
</svg>
