<?xml version="1.0" encoding="utf-8"?>
<!-- Generator: Adobe Illustrator 28.1.0, SVG Export Plug-In . SVG Version: 6.00 Build 0)  -->
<svg version="1.1" id="Layer_1" xmlns="http://www.w3.org/2000/svg" xmlns:xlink="http://www.w3.org/1999/xlink" x="0px" y="0px"
	 viewBox="0 0 32 32" style="enable-background:new 0 0 32 32;" xml:space="preserve">
<style type="text/css">
	.st0{fill-rule:evenodd;clip-rule:evenodd;fill:#FFFFFF;}
</style>
<path class="st0" d="M12.4,3.3l-8,10.1c-0.3,0.4-1,0.5-1.4,0.2l-1.4-1.1c-0.4-0.3-0.5-1-0.2-1.4L9.5,1c0.3-0.4,1-0.5,1.4-0.2
	l1.4,1.1C12.7,2.2,12.7,2.9,12.4,3.3z"/>
<path class="st0" d="M10.8,12.6l-10.1-8c-0.4-0.3-0.5-1-0.2-1.4l1.1-1.4c0.3-0.4,1-0.5,1.4-0.2l10.1,8c0.4,0.3,0.5,1,0.2,1.4
	l-1.1,1.4C11.9,12.9,11.3,13,10.8,12.6z"/>
<path class="st0" d="M16.4,15.6c0.1,0.1,0.2,0.2,0.2,0.3l4.2,7.4l0.1-0.1c0.2-0.1,0.4,0,0.6,0.2l2.1,4c0.1,0.2,0,0.4-0.2,0.6
	L23.3,28l0.2,0.4c0.2,0.4,0.1,0.8-0.3,1c-0.4,0.2-0.8,0.1-1-0.3l0,0l-0.2-0.4l-0.1,0c-0.2,0.1-0.4,0-0.6-0.2l-2.1-4
	c-0.1-0.2,0-0.4,0.2-0.6l0.1,0l-2.6-4.4c-0.1-0.3-0.5-0.2-0.5,0.1v5h0.1c0.2,0,0.4,0.2,0.4,0.4l0,0v4.5c0,0.2-0.2,0.4-0.4,0.4h-0.1
	v0.5c0,0.4-0.4,0.7-0.8,0.7c-0.4,0-0.7-0.3-0.7-0.7V30h-0.1c-0.2,0-0.4-0.2-0.4-0.4v-4.5c0-0.2,0.2-0.4,0.4-0.4h0.1v-5.4
	c0-0.3-0.4-0.4-0.5-0.1L11.9,24l0.1,0c0.2,0.1,0.3,0.3,0.2,0.6l-2.1,4c-0.1,0.2-0.3,0.3-0.6,0.2l-0.1,0l-0.2,0.4
	c-0.2,0.4-0.6,0.5-1,0.3c-0.4-0.2-0.5-0.6-0.3-1h0L8.2,28L8.1,28c-0.2-0.1-0.3-0.3-0.2-0.6l2.1-4c0.1-0.2,0.3-0.3,0.6-0.2l0.1,0.1
	l3.8-7.4c0.1-0.1,0.1-0.2,0.2-0.3"/>
<path class="st0" d="M22.6,23.1c-0.1-0.1-0.2-0.2-0.2-0.3l-4.2-7.3l-0.1,0.1c-0.2,0.1-0.4,0-0.6-0.2l-2.1-3.9
	c-0.1-0.2,0-0.4,0.2-0.6l0.1-0.1l-0.2-0.4c-0.2-0.4-0.1-0.8,0.3-1s0.8-0.1,1,0.3l0,0l0.2,0.4l0.1,0c0.2-0.1,0.4,0,0.6,0.2l2.1,3.9
	c0.1,0.2,0,0.4-0.2,0.6l-0.1,0l2.6,4.4c0.1,0.3,0.5,0.2,0.5-0.1v-5h-0.1c-0.2,0-0.4-0.2-0.4-0.4l0,0V9.2c0-0.2,0.2-0.4,0.4-0.4h0.1
	V8.3c0-0.4,0.4-0.7,0.8-0.7c0.4,0,0.7,0.3,0.7,0.7v0.5h0.1c0.2,0,0.4,0.2,0.4,0.4v4.4c0,0.2-0.2,0.4-0.4,0.4h-0.1v5.4
	c0,0.3,0.4,0.4,0.5,0.1l2.4-4.8l-0.1,0c-0.2-0.1-0.3-0.3-0.2-0.6l2.1-3.9c0.1-0.2,0.3-0.3,0.6-0.2l0.1,0l0.2-0.4
	c0.2-0.4,0.6-0.5,1-0.3s0.5,0.6,0.3,1l0,0l-0.2,0.4l0.1,0.1c0.2,0.1,0.3,0.3,0.2,0.6L29,15.4c-0.1,0.2-0.3,0.3-0.6,0.2l-0.1-0.1
	l-3.7,7.4c-0.1,0.1-0.1,0.2-0.2,0.3"/>
</svg>
