<?xml version="1.0" encoding="utf-8"?>
<!-- Generator: Adobe Illustrator 28.1.0, SVG Export Plug-In . SVG Version: 6.00 Build 0)  -->
<svg version="1.1" id="Layer_1" xmlns="http://www.w3.org/2000/svg" xmlns:xlink="http://www.w3.org/1999/xlink" x="0px" y="0px"
	 viewBox="0 0 32 32" style="enable-background:new 0 0 32 32;" xml:space="preserve">
<style type="text/css">
	.st0{fill-rule:evenodd;clip-rule:evenodd;fill:#FFFFFF;}
</style>
<path class="st0" d="M12.4,11.1L2.3,4.6C1.7,4.2,1.6,3.5,1.9,2.9L3,1.2c0.4-0.6,1.1-0.7,1.7-0.4l10.1,6.6c0.6,0.4,0.7,1.1,0.4,1.7
	L14,10.8C13.7,11.3,12.9,11.5,12.4,11.1z"/>
<path class="st0" d="M14.8,10.4L4.7,16.9c-0.6,0.4-1.3,0.2-1.7-0.4l-1.1-1.7c-0.4-0.6-0.2-1.3,0.4-1.7l10.1-6.6
	C12.9,6.3,13.7,6.4,14,7l1.1,1.7C15.5,9.3,15.4,10,14.8,10.4z"/>
<path class="st0" d="M16.8,15.5c0.1,0.1,0.2,0.2,0.2,0.3l4.2,7.4l0.1-0.1c0.2-0.1,0.4,0,0.6,0.2l2.1,4c0.1,0.2,0,0.4-0.2,0.6
	l-0.1,0.1l0.2,0.4c0.2,0.4,0.1,0.8-0.3,1c-0.4,0.2-0.8,0.1-1-0.3l0,0l-0.2-0.4l-0.1,0c-0.2,0.1-0.4,0-0.6-0.2l-2.1-4
	c-0.1-0.2,0-0.4,0.2-0.6l0.1,0l-2.6-4.4c-0.1-0.3-0.5-0.2-0.5,0.1v5h0.1c0.2,0,0.4,0.2,0.4,0.4l0,0v4.5c0,0.2-0.2,0.4-0.4,0.4h-0.1
	v0.5c0,0.4-0.4,0.7-0.8,0.7c-0.4,0-0.7-0.3-0.7-0.7v-0.5H15c-0.2,0-0.4-0.2-0.4-0.4V25c0-0.2,0.2-0.4,0.4-0.4h0.1v-5.4
	c0-0.3-0.4-0.4-0.5-0.1l-2.4,4.8l0.1,0c0.2,0.1,0.3,0.3,0.2,0.6l-2.1,4c-0.1,0.2-0.3,0.3-0.6,0.2l-0.1,0L9.6,29
	c-0.2,0.4-0.6,0.5-1,0.3c-0.4-0.2-0.5-0.6-0.3-1h0l0.2-0.4l-0.1-0.1c-0.2-0.1-0.3-0.3-0.2-0.6l2.1-4c0.1-0.2,0.3-0.3,0.6-0.2
	l0.1,0.1l3.8-7.4c0.1-0.1,0.1-0.2,0.2-0.3"/>
<path class="st0" d="M22.9,23c-0.1-0.1-0.2-0.2-0.2-0.3l-4.2-7.3l-0.1,0.1c-0.2,0.1-0.4,0-0.6-0.2l-2.1-3.9c-0.1-0.2,0-0.4,0.2-0.6
	l0.1-0.1l-0.2-0.4c-0.2-0.4-0.1-0.8,0.3-1c0.4-0.2,0.8-0.1,1,0.3l0,0l0.2,0.4l0.1,0c0.2-0.1,0.4,0,0.6,0.2l2.1,3.9
	c0.1,0.2,0,0.4-0.2,0.6l-0.1,0l2.6,4.4c0.1,0.3,0.5,0.2,0.5-0.1v-5h-0.1c-0.2,0-0.4-0.2-0.4-0.4l0,0V9.1c0-0.2,0.2-0.4,0.4-0.4h0.1
	V8.2c0-0.4,0.4-0.7,0.8-0.7c0.4,0,0.7,0.3,0.7,0.7v0.5h0.1c0.2,0,0.4,0.2,0.4,0.4v4.4c0,0.2-0.2,0.4-0.4,0.4h-0.1v5.4
	c0,0.3,0.4,0.4,0.5,0.1l2.4-4.8l-0.1,0c-0.2-0.1-0.3-0.3-0.2-0.6l2.1-3.9c0.1-0.2,0.3-0.3,0.6-0.2l0.1,0L30,9.5
	c0.2-0.4,0.6-0.5,1-0.3s0.5,0.6,0.3,1l0,0l-0.2,0.4l0.1,0.1c0.2,0.1,0.3,0.3,0.2,0.6l-2.1,3.9c-0.1,0.2-0.3,0.3-0.6,0.2l-0.1-0.1
	l-3.7,7.4c-0.1,0.1-0.1,0.2-0.2,0.3"/>
</svg>
