<?xml version="1.0" encoding="utf-8"?>
<!-- Generator: Adobe Illustrator 28.0.0, SVG Export Plug-In . SVG Version: 6.00 Build 0)  -->
<svg version="1.1" id="Layer_1" xmlns="http://www.w3.org/2000/svg" xmlns:xlink="http://www.w3.org/1999/xlink" x="0px" y="0px"
	 viewBox="0 0 32 32" style="enable-background:new 0 0 32 32;" xml:space="preserve">
<style type="text/css">
	.st0{fill:none;}
	.st1{fill:#FFFFFF;}
</style>
<g id="layer1">
	<g id="g4265" transform="matrix(0.13118578,0,0,0.13118578,0.50179297,-1.0547604)">
		<rect id="Artboard1" x="8.1" y="0.2" class="st0" width="237" height="237"/>
		<path id="path4217" class="st1" d="M214.6,59.5c-1-0.1-1.9-0.1-2.9,0c-6,0.6-11,4.8-12.7,10.5c-1.6,5.5-3.6,12.3-3.6,20.4l0-0.7
			c-0.2,4.2-0.8,9.8-0.1,16.6c0.1,2.8,0.1,5.2,0,7.1c-1.2,4.1-1,5.9-0.7,4.7c-0.1,0.4-0.2,0.7-0.3,1.1c-1.3,6-1.1,10.3-1.4,12.6
			c-0.1,0.6-0.1,1.2-0.1,1.8c0,1.2,0,1.9,0,2c0,8.2,6.7,14.9,14.9,14.9l0,0c8.2,0,14.9-6.7,14.9-14.9l0,0c0-0.8,0-1,0-1.2
			c0.5-4.4,0.6-7.5,0.9-8.9c1.3-4.7,1.2-6.4,0.7-4.7c0.4-1.1,0.6-2.2,0.7-3.3c0.5-4.6,0.3-8.6,0.2-12.1c0-0.5-0.1-1-0.1-1.5
			c-0.4-2.8-0.1-7.1,0.2-12.8c0-0.2,0-0.5,0-0.7c0-2.9,0.9-6.8,2.4-11.8c2.4-7.9-2.1-16.2-10-18.5C216.5,59.8,215.5,59.6,214.6,59.5
			L214.6,59.5z M71.9,186.8c1.4,2.2,4.6,6,10.6,7s11.1-2.2,13.2-4.2c4.2-4,4.1-5.8,4.8-7.7c1.4-3.7,2.1-7.1,2.9-10.8
			c1-5,1.7-9.3,2.2-12.7c0.8,0.9,1.5,1.8,2.3,2.6c4.9,5.1,12.6,6,18.6,2.3c3.3-2,6-4.1,8.5-5.9c-0.1,1.4-0.1,2.8-0.1,4.3
			c0.2,8.2,7,14.7,15.3,14.5c0,0,0,0,0,0c8.2-0.2,14.7-7,14.5-15.3c0,0,0,0,0,0c0,0.7,1.5-7.4,1.7-15.8c0.1-4.2,0.4-9.7-4.8-16.2
			c-2.6-3.2-7-5.9-11.2-6.7c-3.3-0.6-6.2-0.4-8.9,0.2c-8.5,0.4-14.1,4.1-18.9,7.3c-6.3-12.6-12.2-31.5-17.9-47.9
			c-2-5.7-7.2-9.6-13.2-9.9h0c-8.2-0.4-15.2,5.8-15.7,14c-0.3,4.9-0.3,9.9-0.2,15.1c-1.5-2.5-3.9-5.2-8-6.8
			C61.5,92,55.9,94,53.3,95.5c-2.6,1.5-3.8,2.9-4.9,4.1c-4.2,4.6-7,9.3-6,8.1c-0.1,0.1-0.1,0.2-0.2,0.3c-0.7,0.8-1.3,1.7-2,2.5
			c-0.8-5-1.5-9.9-2.4-15.5c-1.3-8.1-9-13.6-17.1-12.3c0,0,0,0,0,0c-8.1,1.3-13.6,9-12.3,17.1c0,0,0,0,0,0
			c2.6,16.3,4.4,30.6,8.2,47.4c-0.4,6.3,1,8.8,4,13.8c0.9,1.4,1.9,3.1,4.3,5c2.4,1.9,7.2,4.3,12.7,3.4s9.1-4.6,10.8-7
			c1.3-1.9,1.9-3.5,2.4-4.9c2.1-4.9,3.8-9.3,5.5-13.5 M136.5,144.1c0.1,0.1,0.1,0.3,0.1,0.6c0,0,0,0,0,0
			C136.4,144.3,136.4,144,136.5,144.1L136.5,144.1z M46.8,146c-0.1,0.3-0.2,0.9-0.4,2.2c0.1-0.7,0.1-1.4,0.1-2.2
			C46.7,146.1,46.7,146.1,46.8,146L46.8,146z M72.9,170.7c-0.1,0.2-0.2,0.8-0.2,0.8C72.6,171.6,72.4,171.5,72.9,170.7z M206.2,171.1
			c-0.4,0.1-0.8,0.2-1.2,0.3c-0.9,0.2-1.9,0.4-2.8,0.8c-0.9,0.3-1.8,0.7-2.6,1.2c-0.8,0.5-1.6,1.1-2.3,1.8c-0.7,0.6-1.4,1.4-1.9,2.1
			c-0.5,0.7-0.9,1.5-1.3,2.2c0,0,0.2-0.3,0.3-0.5c-0.2,0.3-0.3,0.5-0.4,0.8c-0.6,1.2-1.1,2.5-1.4,3.8c0-0.1,0-0.1,0.1-0.4
			c0-0.2,0.1-0.3,0.2-0.7c0.1-0.2,0.1-0.4,0.3-0.8c0.1-0.3,0.4-1,0.7-1.5c-0.2,0.4-0.5,0.8-0.7,1.2c-1.1,3.3-0.5,2.2-0.6,2.5
			s-0.1,0.5-0.1,0.8c0,0.1,0,0.2,0,0.3c0,0.2-0.1-0.4-0.1,1.7c0,0.3,0,0.6,0.1,1.3c0,0.3,0.2,1.3,0.2,1.3c0,0,0.7,2.6,0.7,2.6
			c0,0,4.2,6,4.2,6c0,0,14.7,2.8,14.7,2.8c0,0,6.6-4.7,6.6-4.7c0,0,1.6-2.4,1.6-2.4c0,0,0.7-1.6,0.9-2c0.1-0.4,0.2-0.6,0.3-0.8
			c0.1-0.4,0.2-0.6,0.2-0.7c0.1-0.6,0.1-0.7,0.2-0.8c-0.1,0.3-0.1,0.3-0.4,1.3c0.2-0.6,0.4-1.3,0.5-1.9c0,0,0,0,0,0
			c0-0.1,0-0.2,0.1-0.4c0,0,0,0,0,0c0,0,0,0,0,0c0,0.1,0,0.2,0,0.2c0,0,0,0,0,0c0-0.1,0-0.2,0-0.3c0-0.2,0-0.4,0.1-0.6
			c0,0,0,0.1,0,0.1c0-0.1,0-0.2,0-0.3c0-0.3,0.1-0.6,0.1-1c0-0.3,0-0.6,0-1c0-0.3,0-0.7,0-1c0-0.3-0.1-0.6-0.1-1
			c0-0.3-0.1-0.6-0.2-1c-0.1-0.3-0.2-0.6-0.3-0.9c-0.1-0.3-0.2-0.6-0.3-0.9c-0.1-0.3-0.2-0.6-0.4-0.9c-0.1-0.3-0.3-0.6-0.4-0.9
			c-0.2-0.3-0.3-0.6-0.5-0.8c-0.2-0.3-0.3-0.6-0.5-0.8c-0.2-0.3-0.4-0.5-0.6-0.8c-0.2-0.3-0.4-0.5-0.6-0.7c-0.2-0.2-0.5-0.5-0.7-0.7
			c-0.2-0.2-0.5-0.4-0.7-0.7c-0.3-0.2-0.5-0.4-0.8-0.6c-0.3-0.2-0.5-0.4-0.8-0.6c-0.3-0.2-0.6-0.3-0.9-0.5c-0.3-0.2-0.6-0.3-0.9-0.4
			c-0.3-0.1-0.6-0.2-0.9-0.4c-0.2-0.1-0.5-0.2-0.7-0.3c0,0-0.1,0-0.1,0c-0.7-0.2-1.5-0.4-2.2-0.5c-0.6,0-1.1,0-1.7,0.1
			C207.3,171.2,206.8,171.1,206.2,171.1L206.2,171.1z"/>
	</g>
</g>
</svg>
