<?xml version="1.0" encoding="utf-8"?>
<!-- Generator: Adobe Illustrator 28.0.0, SVG Export Plug-In . SVG Version: 6.00 Build 0)  -->
<svg version="1.1" id="Layer_1" xmlns="http://www.w3.org/2000/svg" xmlns:xlink="http://www.w3.org/1999/xlink" x="0px" y="0px"
	 viewBox="0 0 32 32" style="enable-background:new 0 0 32 32;" xml:space="preserve">
<style type="text/css">
	.st0{fill:none;}
	.st1{fill:#FFFFFF;}
</style>
<g id="layer1">
	<g id="g4265" transform="matrix(0.13118578,0,0,0.13118578,0.50179297,-1.0547604)">
		<rect id="Artboard1" x="7.9" y="-60.7" class="st0" width="331.4" height="331.4"/>
		<path id="path4217" class="st1" d="M97.1,200.2c2,3.1,6.4,8.4,14.8,9.8c8.4,1.4,15.5-3.1,18.5-5.9c5.9-5.6,5.7-8.1,6.7-10.8
			c2-5.2,2.9-9.9,4.1-15.1c1.4-7,2.4-13,3.1-17.8c1.1,1.3,2.1,2.5,3.2,3.6c6.9,7.1,17.6,8.4,26,3.2c4.6-2.8,8.4-5.7,11.9-8.3
			c-0.1,2-0.1,3.9-0.1,6c0.3,11.5,9.8,20.6,21.4,20.3l0,0c11.5-0.3,20.6-9.8,20.3-21.4l0,0c0,1,2.1-10.3,2.4-22.1
			c0.1-5.9,0.6-13.6-6.7-22.7c-3.6-4.5-9.8-8.3-15.7-9.4c-4.6-0.8-8.7-0.6-12.4,0.3c-11.9,0.6-19.7,5.7-26.4,10.2
			c-8.8-17.6-17.1-44-25-67c-2.8-8-10.1-13.4-18.5-13.8l0,0c-11.5-0.6-21.3,8.1-22,19.6c-0.4,6.9-0.4,13.8-0.3,21.1
			c-2.1-3.5-5.5-7.3-11.2-9.5c-8.5-3.1-16.4-0.3-20,1.8c-3.6,2.1-5.3,4.1-6.9,5.7c-5.9,6.4-9.8,13-8.4,11.3
			c-0.1,0.1-0.1,0.3-0.3,0.4c-1,1.1-1.8,2.4-2.8,3.5c-1.1-7-2.1-13.8-3.4-21.7c-1.8-11.3-12.6-19-23.9-17.2l0,0
			c-11.3,1.8-19,12.6-17.2,23.9l0,0c3.6,22.8,6.2,42.8,11.5,66.3c-0.6,8.8,1.4,12.3,5.6,19.3c1.3,2,2.7,4.3,6,7
			c3.4,2.7,10.1,6,17.8,4.8s12.7-6.4,15.1-9.8c1.8-2.7,2.7-4.9,3.4-6.9c2.9-6.9,5.3-13,7.7-18.9 M187.4,140.5
			c0.1,0.1,0.1,0.4,0.1,0.8l0,0C187.3,140.8,187.3,140.4,187.4,140.5L187.4,140.5z M62,143.1c-0.1,0.4-0.3,1.3-0.6,3.1
			c0.1-1,0.1-2,0.1-3.1C61.9,143.3,61.9,143.3,62,143.1L62,143.1z M98.5,177.7c-0.1,0.3-0.3,1.1-0.3,1.1
			C98.1,178.9,97.8,178.8,98.5,177.7z"/>
	</g>
</g>
</svg>
