<?xml version="1.0" encoding="utf-8"?>
<!-- Generator: Adobe Illustrator 28.0.0, SVG Export Plug-In . SVG Version: 6.00 Build 0)  -->
<svg version="1.1" id="Layer_1" xmlns="http://www.w3.org/2000/svg" xmlns:xlink="http://www.w3.org/1999/xlink" x="0px" y="0px"
	 viewBox="0 0 32 32" style="enable-background:new 0 0 32 32;" xml:space="preserve">
<style type="text/css">
	.st0{fill:none;}
	.st1{fill:#FFFFFF;}
</style>
<g id="layer1">
	<g id="g4265" transform="matrix(0.13118578,0,0,0.13118578,0.50179297,-1.0547604)">
		<rect id="Artboard1" x="-12.5" y="70.2" class="st0" width="204.3" height="204.3"/>
		<path id="path4217" class="st1" d="M69.1,228.4c1.2,1.9,4,5.2,9.2,6c5.2,0.8,9.6-1.9,11.4-3.6c3.6-3.4,3.5-5,4.1-6.6
			c1.2-3.2,1.8-6.1,2.5-9.3c0.9-4.3,1.5-8,1.9-11c0.7,0.8,1.3,1.5,2,2.2c4.2,4.4,10.9,5.2,16,2c2.8-1.7,5.1-3.5,7.3-5.1
			c-0.1,1.2-0.1,2.4-0.1,3.7c0.2,7.1,6.1,12.7,13.1,12.5c0,0,0,0,0,0c7.1-0.2,12.7-6.1,12.5-13.1c0,0,0,0,0,0
			c0,0.6,1.3-6.4,1.4-13.6c0.1-3.6,0.3-8.4-4.2-13.9c-2.3-2.8-6.1-5.1-9.7-5.8c-2.8-0.5-5.4-0.3-7.6,0.1c-7.3,0.4-12.2,3.5-16.3,6.3
			c-5.4-10.8-10.5-27.2-15.5-41.2c-1.7-4.9-6.2-8.2-11.4-8.5h0c-7.1-0.4-13.1,5-13.5,12.1c-0.2,4.2-0.3,8.6-0.2,13
			c-1.3-2.1-3.4-4.5-6.9-5.8c-5.1-2-10-0.2-12.2,1.1c-2.2,1.3-3.3,2.5-4.2,3.5c-3.6,4-6,8-5.2,7c-0.1,0.1-0.1,0.1-0.2,0.2
			c-0.6,0.7-1.2,1.4-1.7,2.1c-0.7-4.3-1.3-8.5-2.1-13.4c-1.1-7-7.7-11.7-14.7-10.6c0,0,0,0,0,0c-7,1.1-11.7,7.7-10.6,14.7
			c0,0,0,0,0,0c2.3,14,3.8,26.3,7.1,40.9c-0.4,5.4,0.8,7.6,3.5,11.9c0.7,1.2,1.7,2.6,3.7,4.3s6.2,3.7,11,3c4.8-0.8,7.9-3.9,9.3-6.1
			c1.1-1.6,1.6-3,2.1-4.3c1.8-4.2,3.3-8,4.7-11.6 M124.7,191.6c0,0,0.1,0.2,0.1,0.5c0,0,0,0,0,0
			C124.7,191.8,124.6,191.6,124.7,191.6L124.7,191.6z M47.4,193.3c-0.1,0.3-0.2,0.8-0.3,1.9c0.1-0.6,0.1-1.2,0.1-1.9
			C47.3,193.4,47.4,193.3,47.4,193.3L47.4,193.3z M69.9,214.5c-0.1,0.2-0.2,0.6-0.2,0.7C69.7,215.3,69.5,215.2,69.9,214.5z"/>
	</g>
</g>
<path class="st1" d="M23.9,10.6c0-0.7-0.2-1.3-0.7-1.8S22,8.1,21.4,8.1c-0.7,0-1.3,0.2-1.8,0.7s-0.7,1.1-0.7,1.8
	c0,0.7,0.2,1.3,0.7,1.8s1.1,0.7,1.8,0.7c0.7,0,1.3-0.2,1.8-0.7S23.9,11.3,23.9,10.6z M28.9,9.6v2.2c0,0.1,0,0.2-0.1,0.2
	c-0.1,0.1-0.1,0.1-0.2,0.1l-1.8,0.3c-0.1,0.4-0.3,0.6-0.4,0.9c0.2,0.3,0.6,0.8,1,1.3c0.1,0.1,0.1,0.2,0.1,0.2c0,0.1,0,0.2-0.1,0.2
	c-0.2,0.2-0.5,0.6-1,1.1c-0.5,0.5-0.8,0.7-0.9,0.7c-0.1,0-0.2,0-0.3-0.1L24,15.7c-0.3,0.1-0.6,0.3-0.9,0.4c-0.1,0.9-0.2,1.5-0.3,1.8
	c0,0.2-0.2,0.3-0.4,0.3h-2.2c-0.1,0-0.2,0-0.2-0.1s-0.1-0.1-0.1-0.2l-0.3-1.8c-0.3-0.1-0.6-0.2-0.9-0.4l-1.4,1
	c-0.1,0.1-0.1,0.1-0.2,0.1c-0.1,0-0.2,0-0.2-0.1c-0.8-0.7-1.4-1.3-1.6-1.6c0-0.1-0.1-0.1-0.1-0.2c0-0.1,0-0.2,0.1-0.2
	c0.1-0.1,0.3-0.4,0.5-0.6c0.2-0.3,0.4-0.5,0.5-0.7c-0.2-0.3-0.3-0.6-0.4-1l-1.8-0.3c-0.1,0-0.2-0.1-0.2-0.1
	c-0.1-0.1-0.1-0.1-0.1-0.2V9.5c0-0.1,0-0.2,0.1-0.2C14,9.2,14,9.2,14.1,9.2l1.8-0.3C16,8.6,16.2,8.3,16.3,8c-0.3-0.4-0.6-0.8-1-1.3
	c-0.1-0.1-0.1-0.2-0.1-0.2c0-0.1,0-0.1,0.1-0.2c0.2-0.2,0.5-0.6,1-1c0.5-0.5,0.8-0.7,0.9-0.7c0.1,0,0.2,0,0.3,0.1l1.3,1
	c0.3-0.1,0.6-0.3,0.9-0.4c0.1-0.9,0.2-1.5,0.3-1.8c0-0.2,0.2-0.3,0.4-0.3h2.2c0.1,0,0.2,0,0.2,0.1s0.1,0.1,0.1,0.2l0.3,1.8
	c0.3,0.1,0.6,0.2,0.9,0.4l1.4-1c0.1-0.1,0.1-0.1,0.2-0.1c0.1,0,0.2,0,0.2,0.1c0.8,0.8,1.4,1.3,1.6,1.7c0,0.1,0.1,0.1,0.1,0.2
	c0,0.1,0,0.2-0.1,0.2c-0.1,0.1-0.3,0.4-0.5,0.6S26.5,7.8,26.4,8c0.2,0.3,0.3,0.6,0.4,1l1.8,0.3c0.1,0,0.2,0.1,0.2,0.1
	S28.9,9.5,28.9,9.6z"/>
</svg>
