<?xml version="1.0" encoding="utf-8"?>
<!-- Generator: Adobe Illustrator 28.0.0, SVG Export Plug-In . SVG Version: 6.00 Build 0)  -->
<svg version="1.1" id="Layer_1" xmlns="http://www.w3.org/2000/svg" xmlns:xlink="http://www.w3.org/1999/xlink" x="0px" y="0px"
	 viewBox="0 0 32 32" style="enable-background:new 0 0 32 32;" xml:space="preserve">
<style type="text/css">
	.st0{fill:none;}
	.st1{fill:#FFFFFF;}
	.st2{fill:#FFFFFF;stroke:#FFFFFF;stroke-width:0.75;stroke-miterlimit:10;}
</style>
<g id="layer1">
	<g id="g4265" transform="matrix(0.13118578,0,0,0.13118578,0.50179297,-1.0547604)">
		<rect id="Artboard1" x="-1808.4" y="-1844.5" class="st0" width="3870.2" height="3870.2"/>
	</g>
</g>
<path id="path4217" class="st1" d="M14.2,29.3c0.2,0.3,0.5,0.7,1.2,0.8c0.7,0.1,1.3-0.3,1.5-0.5c0.5-0.5,0.5-0.7,0.5-0.9
	c0.2-0.4,0.2-0.8,0.3-1.2c0.1-0.6,0.2-1.1,0.3-1.5c0.1,0.1,0.2,0.2,0.3,0.3c0.6,0.6,1.5,0.7,2.1,0.3c0.4-0.2,0.7-0.5,1-0.7
	c0,0.2,0,0.3,0,0.5c0,1,0.8,1.7,1.8,1.7l0,0c1,0,1.7-0.8,1.7-1.8l0,0c0,0.1,0.2-0.9,0.2-1.8c0-0.5,0-1.1-0.6-1.9
	c-0.3-0.4-0.8-0.7-1.3-0.8c-0.4-0.1-0.7,0-1,0c-1,0.1-1.6,0.5-2.2,0.8c-0.7-1.4-1.4-3.6-2.1-5.5c-0.2-0.7-0.8-1.1-1.5-1.1l0,0
	c-1-0.1-1.8,0.7-1.8,1.6c0,0.6,0,1.2,0,1.7c-0.2-0.3-0.5-0.6-0.9-0.8c-0.7-0.3-1.3,0-1.6,0.1c-0.3,0.2-0.4,0.3-0.6,0.5
	c-0.5,0.5-0.8,1.1-0.7,0.9c0,0,0,0,0,0c-0.1,0.1-0.2,0.2-0.2,0.3c-0.1-0.6-0.2-1.1-0.3-1.8c-0.1-0.9-1-1.6-2-1.4l0,0
	c-0.9,0.1-1.6,1-1.4,2l0,0c0.3,1.9,0.5,3.5,1,5.5c-0.1,0.7,0.1,1,0.5,1.6c0.1,0.2,0.2,0.3,0.5,0.6s0.8,0.5,1.5,0.4
	c0.6-0.1,1.1-0.5,1.2-0.8c0.1-0.2,0.2-0.4,0.3-0.6c0.2-0.6,0.4-1.1,0.6-1.6 M21.7,24.3C21.7,24.3,21.7,24.4,21.7,24.3L21.7,24.3
	C21.7,24.4,21.7,24.3,21.7,24.3L21.7,24.3z M11.3,24.6c0,0,0,0.1,0,0.3C11.3,24.7,11.3,24.7,11.3,24.6
	C11.3,24.6,11.3,24.6,11.3,24.6L11.3,24.6z M14.3,27.4C14.3,27.4,14.3,27.5,14.3,27.4C14.3,27.5,14.3,27.5,14.3,27.4z"/>
<path class="st1" d="M11.7,2.4c-0.3-0.3-0.8-0.3-1.2,0s-0.3,0.8,0,1.2c2.5,2.5,2.5,6.7,0,9.2c-0.3,0.3-0.3,0.8,0,1.2
	c0.3,0.3,0.8,0.3,1.2,0C14.9,10.7,14.9,5.6,11.7,2.4z M9.4,4.7c-0.3-0.3-0.8-0.3-1.2,0S8,5.5,8.3,5.9c1.3,1.3,1.3,3.3,0,4.6
	c-0.3,0.3-0.3,0.8,0,1.2c0.3,0.3,0.8,0.3,1.2,0C11.4,9.7,11.4,6.6,9.4,4.7z M7.2,7C6.5,6.4,5.5,6.4,4.9,7s-0.6,1.6,0,2.3
	s1.6,0.6,2.3,0S7.8,7.6,7.2,7z"/>
<g>
	<path class="st2" d="M22.1,12.4c0.2,0.2,0.3,0.6,0.3,1.1v0.3c0,0.3,0,0.5,0,0.7c0,0.1-0.1,0.3-0.2,0.5c-0.1,0.2-0.3,0.4-0.5,0.4
		c-0.3,0.1-0.6,0.1-1,0.1c-0.7,0-1.2-0.1-1.4-0.4c-0.2-0.2-0.3-0.7-0.3-1.4c0-0.3,0-0.5,0-0.7c0-0.2,0.1-0.3,0.2-0.5
		c0.1-0.2,0.3-0.3,0.6-0.4c0.3-0.1,0.6-0.1,1-0.1C21.3,12,21.8,12.2,22.1,12.4z M21.6,10.4c-0.2,0.1-0.6,0.1-1,0.1
		c-0.4,0-0.7,0-1-0.1s-0.4-0.2-0.5-0.3C19,9.9,19,9.8,18.9,9.6c0-0.1,0-0.3,0-0.6V2.9c0-0.3,0-0.5,0-0.6C19,2.2,19,2,19.1,1.9
		c0.1-0.2,0.3-0.3,0.5-0.4s0.6-0.1,1-0.1c0.4,0,0.7,0,1,0.1c0.2,0.1,0.4,0.2,0.5,0.4c0.1,0.2,0.2,0.3,0.2,0.5c0,0.1,0,0.3,0,0.6v6.1
		c0,0.3,0,0.5,0,0.6c0,0.1-0.1,0.3-0.2,0.4C22,10.3,21.8,10.4,21.6,10.4z"/>
</g>
</svg>
