<?xml version="1.0" encoding="utf-8"?>
<!-- Generator: Adobe Illustrator 28.0.0, SVG Export Plug-In . SVG Version: 6.00 Build 0)  -->
<svg version="1.1" id="Layer_1" xmlns="http://www.w3.org/2000/svg" xmlns:xlink="http://www.w3.org/1999/xlink" x="0px" y="0px"
	 viewBox="0 0 64 64" style="enable-background:new 0 0 64 64;" xml:space="preserve">
<style type="text/css">
	.st0{fill:none;stroke:#FFFFFF;stroke-width:2;stroke-miterlimit:10;}
	.st1{fill:#EFEFEF;stroke:#FFFFFF;stroke-width:2;stroke-miterlimit:10;}
	.st2{fill:#C9C9C9;stroke:#FFFFFF;stroke-width:2;stroke-miterlimit:10;}
	.st3{fill:#474747;}
	.st4{fill:#1A1A1A;}
	
		.st5{fill:none;stroke:url(#path1348-0_00000098215049293398958080000003883248006900811651_);stroke-width:2;stroke-linecap:round;stroke-linejoin:round;stroke-miterlimit:15.1181;}
	.st6{fill:#767676;}
	.st7{fill:#292929;}
	.st8{fill:#292929;fill-opacity:0.1287;}
	.st9{fill:#414141;}
	.st10{fill:none;stroke:#414141;stroke-width:4.4387;stroke-linecap:round;stroke-miterlimit:13.4209;}
	.st11{fill:#5F5F5F;}
</style>
<g id="layer1">
	<path id="rect112" class="st0" d="M11.5,3.4c-2,0-3.7,0.9-4.2,2.3H4.6c-1.1,0-1.9,0.9-1.9,1.9V17v38v3.8c0,1,0.8,1.7,1.7,1.7h55.2
		c1,0,1.7-0.8,1.7-1.7V55V17V7.6c0-1.1-0.9-1.9-1.9-1.9h-2.7c-0.5-1.4-2.3-2.3-4.2-2.3c-2,0-3.7,0.9-4.2,2.3H43
		c-0.5-1.4-2.3-2.3-4.2-2.3c-2,0-3.7,0.9-4.2,2.3h-5.2c-0.5-1.4-2.3-2.3-4.2-2.3c-2,0-3.7,0.9-4.2,2.3h-5.2
		C15.2,4.4,13.5,3.4,11.5,3.4z"/>
	<path id="rect23" class="st1" d="M4.6,6.2h54.8c0.8,0,1.5,0.7,1.5,1.5V55c0,0.8-0.7,1.5-1.5,1.5H4.6c-0.8,0-1.5-0.7-1.5-1.5V7.6
		C3.1,6.8,3.8,6.2,4.6,6.2z"/>
	<path id="rect22" class="st2" d="M4.4,15.7h55.2c0.7,0,1.3,0.6,1.3,1.3v41.8c0,0.7-0.6,1.3-1.3,1.3H4.4c-0.7,0-1.3-0.6-1.3-1.3V17
		C3.1,16.3,3.7,15.7,4.4,15.7z"/>
	<path id="rect86" class="st3" d="M4.6,5.7c-1.1,0-1.9,0.9-1.9,1.9V17v38v3.8c0,1,0.8,1.7,1.7,1.7h55.2c1,0,1.7-0.8,1.7-1.7V55V17
		V7.6c0-1.1-0.9-1.9-1.9-1.9H4.6z M4.6,6.6h54.8c0.6,0,1,0.4,1,1V17v38v3.8c0,0.5-0.4,0.8-0.8,0.8H4.4c-0.5,0-0.8-0.4-0.8-0.8V55V17
		V7.6C3.6,7.1,4,6.6,4.6,6.6z"/>
	<g id="g84" transform="translate(0.56802401)">
		<path id="rect8" class="st4" d="M7.8,37.9H55c0.8,0,1.5,0.7,1.5,1.5v15.4c0,0.8-0.7,1.5-1.5,1.5H7.8c-0.8,0-1.5-0.7-1.5-1.5V39.4
			C6.4,38.6,7,37.9,7.8,37.9z"/>
		
			<linearGradient id="path1348-0_00000165221085437691094340000011967671235810811538_" gradientUnits="userSpaceOnUse" x1="13.8138" y1="27.4272" x2="24.2212" y2="27.4272" gradientTransform="matrix(4.048 0 0 -5.3135 -44.7262 193.1113)">
			<stop  offset="0" style="stop-color:#FF6900"/>
			<stop  offset="1" style="stop-color:#FF00BB"/>
		</linearGradient>
		
			<path id="path1348-0" style="fill:none;stroke:url(#path1348-0_00000165221085437691094340000011967671235810811538_);stroke-width:2;stroke-linecap:round;stroke-linejoin:round;stroke-miterlimit:15.1181;" d="
			M7.4,47.3h12l2.8-5.7L24,54.7L28.1,40l1.1,11.3l2.2-8.1l2.7,7.8l3.2-9.1l2,11.2l2.2-6.3h13.7"/>
	</g>
	<g id="g83" transform="translate(-1.9506607)">
		<g id="g25" transform="translate(-10.220171,2.8650214)">
			<circle id="path6" cx="27.1" cy="25.9" r="5.8"/>
			<path id="path8" d="M22.4,17.5l8.4,4.9l-8.4,4.9L22.4,17.5z"/>
			<circle id="path9" class="st6" cx="18.2" cy="25.8" r="1"/>
			<circle id="circle9" class="st6" cx="35.9" cy="26.1" r="1"/>
			<circle id="circle10" class="st6" cx="27" cy="17" r="1"/>
			<circle id="circle11" class="st6" cx="20.6" cy="19.9" r="1"/>
			<circle id="circle13" class="st6" cx="33.3" cy="19.7" r="1"/>
			<circle id="circle26" class="st7" cx="27.1" cy="25.9" r="2.3"/>
			<path id="path26" class="st7" d="M26,24.2l-3.7-6.7l4.6,2.6l-0.3,4H26z"/>
		</g>
		<g id="g33" transform="translate(137.94649,2.8650214)">
			<circle id="circle27" cx="-86.9" cy="25.9" r="5.8"/>
			<circle id="circle28" class="st6" cx="-95.7" cy="25.8" r="1"/>
			<circle id="circle29" class="st6" cx="-78" cy="26.1" r="1"/>
			<circle id="circle30" class="st6" cx="-86.9" cy="17" r="1"/>
			<circle id="circle31" class="st6" cx="-93.3" cy="19.9" r="1"/>
			<circle id="circle32" class="st6" cx="-80.6" cy="19.7" r="1"/>
			<g id="g34" transform="rotate(75.426512,73.289568,116.71782)">
				<path id="path27" d="M-59.6,240.3l8.4,4.9l-8.4,4.9L-59.6,240.3z"/>
				<circle id="circle33" class="st7" cx="-54.8" cy="248.9" r="2.3"/>
				<path id="path26-6" class="st7" d="M-55.6,246.8l-4-6.5l0,5.3l3.7,1.7L-55.6,246.8z"/>
			</g>
		</g>
	</g>
	<g id="g81" transform="translate(1.4552076)">
		<g id="g40" transform="matrix(0.88773608,0,0,0.88773608,3.4350797,7.1308031)">
			<ellipse id="ellipse40" class="st8" cx="7.4" cy="3.6" rx="6" ry="4.7"/>
			<ellipse id="ellipse34" class="st7" cx="7.4" cy="3.2" rx="6" ry="4.4"/>
			<path id="path35" class="st7" d="M2.7-1.6L1.4,3.1l11.5,0.8l0.6-0.6l-1.2-4.6L2.7-1.6z"/>
			<ellipse id="path34" class="st9" cx="7.4" cy="-0.6" rx="4.9" ry="3.6"/>
			<path id="path36" class="st10" d="M12.1,1.3l0.8,3.3"/>
			<path id="path37" class="st10" d="M7.4,3.3l0,4"/>
			<path id="path38" class="st10" d="M10,2.9l0.6,3.7"/>
			<path id="path39" class="st10" d="M4.6,2.8L3.9,6.5"/>
			<path id="path40" class="st10" d="M2.9,1.6L2,4.4"/>
		</g>
		<g id="g65" transform="matrix(0.88773608,0,0,0.88773608,62.613553,7.1308031)">
			<ellipse id="ellipse59" class="st8" cx="-43.8" cy="3.6" rx="6" ry="4.7"/>
			<ellipse id="ellipse60" class="st7" cx="-43.8" cy="3.2" rx="6" ry="4.4"/>
			<path id="path60" class="st7" d="M-48.6-1.6l-1.3,4.6l11.5,0.8l0.6-0.6L-39-1.3L-48.6-1.6z"/>
			<ellipse id="ellipse61" class="st9" cx="-43.8" cy="-0.6" rx="4.9" ry="3.6"/>
			<path id="path61" class="st10" d="M-39.2,1.3l0.8,3.3"/>
			<path id="path62" class="st10" d="M-43.8,3.3l0,4"/>
			<path id="path63" class="st10" d="M-41.3,2.9l0.6,3.7"/>
			<path id="path64" class="st10" d="M-46.6,2.8l-0.7,3.7"/>
			<path id="path65" class="st10" d="M-48.3,1.6l-0.9,2.8"/>
		</g>
		<g id="g71" transform="matrix(0.88773608,0,0,0.88773608,121.79203,7.1308031)">
			<ellipse id="ellipse65" class="st8" cx="-95.1" cy="3.6" rx="6" ry="4.7"/>
			<ellipse id="ellipse66" class="st7" cx="-95.1" cy="3.2" rx="6" ry="4.4"/>
			<path id="path66" class="st7" d="M-99.9-1.6l-1.3,4.6l11.5,0.8l0.6-0.6l-1.2-4.6L-99.9-1.6z"/>
			<ellipse id="ellipse67" class="st9" cx="-95.1" cy="-0.6" rx="4.9" ry="3.6"/>
			<path id="path67" class="st10" d="M-90.5,1.3l0.8,3.3"/>
			<path id="path68" class="st10" d="M-95.1,3.3l0,4"/>
			<path id="path69" class="st10" d="M-92.5,2.9l0.6,3.7"/>
			<path id="path70" class="st10" d="M-97.9,2.8l-0.7,3.7"/>
			<path id="path71" class="st10" d="M-99.6,1.6l-0.9,2.8"/>
		</g>
		<g id="g77" transform="matrix(0.88773608,0,0,0.88773608,180.9705,7.1308031)">
			<ellipse id="ellipse71" class="st8" cx="-146.4" cy="3.6" rx="6" ry="4.7"/>
			<ellipse id="ellipse72" class="st7" cx="-146.4" cy="3.2" rx="6" ry="4.4"/>
			<path id="path72" class="st7" d="M-151.1-1.6l-1.3,4.6l11.5,0.8l0.6-0.6l-1.2-4.6L-151.1-1.6z"/>
			<ellipse id="ellipse73" class="st9" cx="-146.4" cy="-0.6" rx="4.9" ry="3.6"/>
			<path id="path73" class="st10" d="M-141.7,1.3l0.8,3.3"/>
			<path id="path74" class="st10" d="M-146.4,3.3l0,4"/>
			<path id="path75" class="st10" d="M-143.8,2.9l0.6,3.7"/>
			<path id="path76" class="st10" d="M-149.2,2.8l-0.7,3.7"/>
			<path id="path77" class="st10" d="M-150.9,1.6l-0.9,2.8"/>
		</g>
	</g>
	<g id="g82" transform="translate(-1.1547079)">
		<path id="rect77" class="st6" d="M31.3,27.1h3.8c0.5,0,0.9,0.4,0.9,0.9v6.4c0,0.5-0.4,0.9-0.9,0.9h-3.8c-0.5,0-0.9-0.4-0.9-0.9V28
			C30.3,27.5,30.7,27.1,31.3,27.1z"/>
		<path id="path79" class="st6" d="M31.1,26.6c-0.5,0-1,0.4-0.9,0.8l0,0.9l6,0l0-0.9c0-0.5-0.4-0.8-0.9-0.8L31.1,26.6z"/>
		<path id="rect78" class="st11" d="M31.1,27.5c-0.5,0-1,0.4-0.9,0.8l0.2,3H36l0.2-3c0-0.5-0.4-0.8-0.9-0.8H31.1z"/>
	</g>
</g>
</svg>
