<?xml version="1.0" encoding="utf-8"?>
<!-- Generator: Adobe Illustrator 28.0.0, SVG Export Plug-In . SVG Version: 6.00 Build 0)  -->
<svg version="1.1" id="Layer_1" xmlns="http://www.w3.org/2000/svg" xmlns:xlink="http://www.w3.org/1999/xlink" x="0px" y="0px"
	 viewBox="0 0 64 64" style="enable-background:new 0 0 64 64;" xml:space="preserve">
<style type="text/css">
	.st0{fill-rule:evenodd;clip-rule:evenodd;fill-opacity:9.375000e-02;}
	.st1{fill:none;}
	.st2{fill-rule:evenodd;clip-rule:evenodd;fill:#4D2488;}
	.st3{fill-rule:evenodd;clip-rule:evenodd;fill:#BD93F9;}
	.st4{fill:#FFFFFF;}
</style>
<g id="layer1">
	<g id="g4265" transform="matrix(0.13118578,0,0,0.13118578,0.50179297,-1.0547604)">
		<path id="path5" class="st0" d="M266.4,70.2c-7.4,0-13.6,0-17.3,0.2c-30.5,1.2-70.7,1.5-96.1,2.5c-11.7,0.4-76.2-6.9-96.9,19.7
			c-10.1,13-12.4,47.3-12.2,82.1c-0.3,34.7,2.4,71.4,2.9,89.8c0,0.4,0,0.9,0,1.2c-0.3,3.1-0.6,9.5-0.4,17.6
			c-0.4,20.1,1.8,62.9,20.1,82.4c20,21.3,50.2,22.9,55.7,23.4c6.3,0.6,59.2,0,63.5,0.1c1.6,0.1,6.6,0.2,13.4,0.3
			c2.8,16,13.9,41.6,29.7,52.1c17.8,11.8,59.9,17.2,65,14.5c3.5-1.8,21.8-2.2,21.8-4.1c0-0.1-0.2-4.7-0.4-8.3
			c0.1-0.1,0.4-0.2,0.4-0.3c0-0.2-0.6-12.2-0.6-12.2s-16.2,3.3-17.9,2.2c-8.8-5.6-14.7-14.6-21.7-21.8c-1.5-1.5-2-7.1-2.1-13.5
			c0-2.3,0.1-4.6,0.2-6.6c12.1-0.1,45,1,51.9,1c16.5,0,64.8,1.6,89.3-20.7c20.4-18.6,23.1-49.7,22.7-69.7c0.4-13.2-0.9-23.8-1-26.7
			c-0.1-1.9-0.1-7-0.1-12.2c0.1-15.1,0.3-34.1,0.2-48.6c0-11,0-20.9-0.3-25.4c-0.1-1.6-0.1-3.4-0.1-5.1c0.1-4.9,0.2-10,0.1-15.5
			c0.2-20-0.8-44.8-18.3-70.9C395.5,64.5,338,72,333.4,71.7C322.4,71.1,288.8,70.3,266.4,70.2z"/>
		<rect id="Artboard1" x="38.4" y="47.1" class="st1" width="403.4" height="403.4"/>
		<path id="path3611" class="st2" d="M199.2,376.5c-6.9-0.2-11.9-0.3-13.4-0.3c-4.2-0.1-57.1,0.5-63.5-0.1
			c-5.6-0.5-35.7-2.1-55.7-23.4c-21.8-23.2-20.8-79.8-19.7-91.3c1.7-18-12.4-145.2,9.3-173.1c20.6-26.6,85.2-19.2,96.9-19.7
			c25.3-1,65.5-1.3,96.1-2.5c14.7-0.6,69.6,0.4,84.3,1.3c4.6,0.3,62-7.2,84.3,26.1c24.2,36.1,17,69.8,18.3,91.5
			c0.9,14.2-0.3,76.7,0.2,86.1c0.4,7.2,7.9,60.8-21.6,87.7c-24.5,22.3-72.8,20.6-89.3,20.7c-6.9,0-39.8-1.1-51.9-1
			c-0.4,10.3-0.7,26,2,28.8c7,7.2,12.9,16.2,21.7,21.8c1.7,1.1,17.9-2.2,17.9-2.2s0.6,12.1,0.6,12.2c0,1.9-18.3,2.3-21.8,4.1
			c-5.1,2.6-47.2-2.7-65-14.5C213.1,418.1,202,392.5,199.2,376.5z"/>
		<path id="path3615" class="st3" d="M198.8,364.3c-6.9-0.2-11.9-0.3-13.4-0.3c-4.2-0.1-57.1,0.5-63.5-0.1
			c-5.6-0.5-35.7-2.1-55.7-23.4c-21.8-23.2-20.8-79.8-19.7-91.3c1.7-18-12.4-145.2,9.3-173.1c20.6-26.6,85.2-19.2,96.9-19.7
			c25.3-1,65.5-1.3,96.1-2.5c14.7-0.6,69.6,0.4,84.3,1.3c4.6,0.3,62-7.2,84.3,26.1c24.2,36.1,17,69.8,18.3,91.5
			c0.9,14.2-0.3,76.7,0.2,86.1c0.4,7.2,7.9,60.8-21.6,87.7c-24.5,22.3-72.8,20.6-89.3,20.7c-6.9,0-39.8-1.1-51.9-1
			c-0.4,10.3-0.7,26,2,28.8c7,7.2,12.4,17,21.7,21.8c4.5,2.3,18.4,9.8,18.4,10c0,1.9-18.3,2.3-21.8,4.1c-5.1,2.6-47.2-2.7-65-14.5
			C212.7,405.9,201.6,380.3,198.8,364.3z"/>
		<path id="path4217" class="st4" d="M367.1,107.9c-1.3-0.1-2.6-0.1-3.9,0c-7.9,0.8-14.6,6.3-16.9,14c-2.2,7.3-4.8,16.2-4.8,27
			l0-0.9c-0.2,5.6-1.1,13-0.1,21.9c0.1,3.8,0.1,6.8-0.1,9.4c-1.6,5.5-1.3,7.8-0.9,6.2c-0.1,0.5-0.3,1-0.4,1.5
			c-1.7,8-1.5,13.7-1.9,16.7c-0.1,0.8-0.2,1.5-0.2,2.3c0,1.6,0,2.5,0,2.6c0,10.9,8.8,19.7,19.7,19.7l0,0c10.9,0,19.7-8.8,19.7-19.7
			l0,0c0-1.1,0-1.3,0-1.5c0.7-5.8,0.8-9.9,1.2-11.8c1.7-6.2,1.7-8.5,0.9-6.3c0.5-1.4,0.8-2.9,1-4.4c0.6-6.1,0.4-11.4,0.3-16
			c0-0.7-0.1-1.3-0.2-2c-0.5-3.7-0.1-9.4,0.3-17c0-0.3,0-0.6,0-0.9c0-3.8,1.2-9,3.1-15.6c3.1-10.4-2.8-21.4-13.2-24.5
			C369.6,108.2,368.4,108,367.1,107.9L367.1,107.9z M204.1,124.3c-10.8-0.6-20.1,7.7-20.7,18.5c-0.4,6.4-0.4,13.2-0.3,20
			c-2-3.3-5.2-6.9-10.6-8.9c-7.8-3-15.3-0.3-18.8,1.7c-3.5,2-5,3.8-6.4,5.4c-5.6,6.2-9.3,12.3-7.9,10.8c-0.1,0.1-0.2,0.2-0.3,0.3
			c-0.9,1.1-1.8,2.2-2.6,3.3c-1-6.7-2-13.1-3.2-20.5c-1.7-10.7-11.9-18-22.6-16.3c0,0,0,0,0,0c-10.7,1.7-18,11.9-16.3,22.6
			c0,0,0,0,0,0c3.5,21.5,5.8,40.4,10.8,62.8c-0.6,8.3,1.3,11.6,5.3,18.3c1.1,1.9,2.5,4.1,5.7,6.6c3.1,2.5,9.5,5.7,16.8,4.5
			c7.3-1.2,12.1-6,14.3-9.3c1.7-2.5,2.5-4.6,3.2-6.5c2.8-6.5,5.1-12.3,7.3-17.8c4.9,18.8,11,39.2,19.8,55.4c0.3,0.5,0.5,0.9,0.8,1.3
			c1.9,2.9,6.1,8,14.1,9.2c8,1.3,14.7-2.9,17.5-5.6c5.5-5.3,5.4-7.7,6.3-10.2c1.8-4.9,2.8-9.4,3.8-14.4c1.3-6.6,2.2-12.4,2.9-16.8
			c1,1.2,2,2.3,3.1,3.4c6.4,6.7,16.7,8,24.6,3.1c4.3-2.7,7.9-5.4,11.3-7.9c-0.1,1.8-0.2,3.7-0.1,5.7c0.3,10.9,9.3,19.5,20.2,19.2
			c0,0,0,0,0,0c10.9-0.3,19.5-9.3,19.2-20.2c0,0,0,0,0,0c0,1,2-9.8,2.2-20.9c0.1-5.5,0.5-12.9-6.4-21.4c-3.5-4.3-9.3-7.8-14.8-8.8
			c-4.4-0.8-8.2-0.5-11.7,0.2c-11.2,0.6-18.7,5.5-25,9.6c-8.3-16.6-16.1-41.8-23.7-63.3C218.9,129.9,212,124.7,204.1,124.3
			L204.1,124.3z M263.7,219.8c0.1,0.1,0.2,0.3,0.1,0.8c0,0,0,0,0,0.1C263.7,220.1,263.7,219.7,263.7,219.8L263.7,219.8z
			 M145.1,222.4c-0.1,0.4-0.3,1.2-0.5,2.9c0.1-1,0.2-1.9,0.2-2.9C144.9,222.5,145,222.5,145.1,222.4L145.1,222.4z M179.6,255
			c-0.1,0.3-0.3,1-0.3,1.1C179.2,256.3,178.9,256,179.6,255z M356,255.5c-0.5,0.1-1,0.3-1.6,0.4c-1.2,0.2-2.5,0.6-3.7,1
			c-1.2,0.4-2.4,1-3.5,1.6c-1.1,0.7-2.1,1.5-3,2.4c-0.9,0.9-1.8,1.8-2.6,2.8c-0.7,0.9-1.2,1.9-1.7,3c0,0,0.3-0.4,0.5-0.7
			c-0.2,0.3-0.4,0.7-0.6,1c-0.8,1.6-1.4,3.2-1.8,5c0-0.1,0-0.1,0.1-0.5c0-0.2,0.1-0.4,0.2-1c0.1-0.3,0.2-0.6,0.3-1.1
			c0.1-0.4,0.6-1.4,0.9-2c-0.3,0.5-0.6,1-0.9,1.6c-1.4,4.3-0.7,2.9-0.8,3.3c-0.1,0.4-0.1,0.6-0.2,1.1c0,0.1,0,0.2-0.1,0.4
			c0,0.2-0.1-0.6-0.1,2.3c0,0.4,0,0.8,0.1,1.7c0,0.4,0.2,1.7,0.2,1.7c0,0,1,3.5,1,3.5c0,0,5.6,8,5.6,8c0,0,19.4,3.7,19.4,3.7
			c0,0,8.8-6.2,8.8-6.2c0,0,2.1-3.2,2.1-3.2c0,0,1-2.1,1.2-2.6c0.2-0.5,0.3-0.8,0.4-1.1c0.1-0.5,0.2-0.8,0.3-1
			c0.2-0.8,0.2-0.9,0.2-1c-0.1,0.4-0.1,0.5-0.5,1.8c0.3-0.8,0.5-1.7,0.6-2.6c0,0,0,0,0,0c0-0.1,0.1-0.3,0.1-0.5c0,0,0,0,0,0
			c0,0,0,0,0,0.1c0,0.2,0,0.3,0,0.3c0,0,0,0,0,0c0-0.1,0-0.2,0-0.3c0-0.2,0.1-0.5,0.1-0.7c0,0,0,0.1,0,0.1c0-0.1,0-0.3,0-0.4
			c0.1-0.4,0.1-0.9,0.1-1.3c0-0.4,0-0.9,0-1.3c0-0.4,0-0.9-0.1-1.3c0-0.4-0.1-0.8-0.2-1.3c-0.1-0.4-0.1-0.9-0.2-1.3
			c-0.1-0.4-0.2-0.8-0.4-1.3c-0.1-0.4-0.2-0.8-0.4-1.2c-0.2-0.4-0.3-0.8-0.5-1.2c-0.2-0.4-0.3-0.8-0.5-1.2c-0.2-0.4-0.4-0.7-0.7-1.1
			c-0.2-0.4-0.5-0.7-0.7-1.1c-0.3-0.3-0.5-0.7-0.8-1c-0.3-0.3-0.5-0.7-0.8-1c-0.3-0.3-0.6-0.6-0.9-0.9c-0.3-0.3-0.6-0.6-0.9-0.9
			c-0.3-0.3-0.7-0.5-1-0.8c-0.3-0.3-0.7-0.5-1-0.7c-0.4-0.2-0.7-0.4-1.1-0.6c-0.4-0.2-0.8-0.4-1.1-0.6c-0.4-0.2-0.8-0.3-1.2-0.5
			c-0.3-0.1-0.6-0.3-0.9-0.4c0,0-0.1,0-0.1,0c-1-0.3-2-0.6-3-0.7c-0.8,0-1.5,0-2.3,0.1C357.5,255.6,356.8,255.6,356,255.5L356,255.5
			z"/>
	</g>
</g>
</svg>
