<?xml version="1.0" encoding="utf-8"?>
<!-- Generator: Adobe Illustrator 28.0.0, SVG Export Plug-In . SVG Version: 6.00 Build 0)  -->
<svg version="1.1" id="Layer_1" xmlns="http://www.w3.org/2000/svg" xmlns:xlink="http://www.w3.org/1999/xlink" x="0px" y="0px"
	 viewBox="0 0 32 32" style="enable-background:new 0 0 32 32;" xml:space="preserve">
<style type="text/css">
	.st0{fill:#FFFFFF;}
</style>
<g>
	<path class="st0" d="M30.4,6.2H1.6v15H10v-5c0-0.7,0.5-1.2,1.1-1.2h1.1c0.6,0,1.1,0.6,1.1,1.2v5h2.1v-5c0-0.7,0.5-1.2,1-1.2
		c0.2,0,0.5,0.1,0.7,0.3l5.3,5c0.1,0.1,0.1,0.1,0.2,0.2c0.2,0.2,0.2,0.5,0.2,0.8h7.7V6.2z M12.4,7.2h7.2v1.3h-7.2V7.2z M6.3,19.4
		c-1.9,0-3.4-1.5-3.4-3.4c0-1.9,1.5-3.4,3.4-3.4c1.9,0,3.4,1.5,3.4,3.4C9.7,17.9,8.2,19.4,6.3,19.4z M3.3,10.8V9.5h25.5v1.3H3.3z
		 M25.8,19.3c-1.8,0-3.3-1.5-3.3-3.3s1.5-3.3,3.3-3.3s3.3,1.5,3.3,3.3S27.6,19.3,25.8,19.3z"/>
	<polygon class="st0" points="11.8,3.4 20.2,3.4 20.2,5.7 21.4,5.7 21.4,2.2 10.6,2.2 10.6,5.7 11.8,5.7 	"/>
	<path class="st0" d="M6.3,15.7C6.1,15.7,6,15.8,6,16c0,0.2,0.1,0.3,0.3,0.3c0.2,0,0.3-0.1,0.3-0.3C6.6,15.8,6.5,15.7,6.3,15.7z"/>
	<path class="st0" d="M6.3,13.5c-1.4,0-2.5,1.1-2.5,2.5s1.1,2.5,2.5,2.5c1.4,0,2.5-1.1,2.5-2.5S7.7,13.5,6.3,13.5z M6.3,17.2
		c-0.6,0-1.2-0.5-1.2-1.2s0.5-1.2,1.2-1.2s1.2,0.5,1.2,1.2S6.9,17.2,6.3,17.2z"/>
	<path class="st0" d="M25.8,13.5c-1.4,0-2.2,1.1-2.2,2.5s0.8,2.5,2.2,2.5s2.5-1.1,2.5-2.5S27.1,13.5,25.8,13.5z M25.8,17.2
		c-0.6,0-1.1-0.5-1.1-1.1s0.5-1.1,1.1-1.1s1.1,0.5,1.1,1.1S26.4,17.2,25.8,17.2z"/>
	<circle class="st0" cx="25.8" cy="16" r="0.3"/>
	<path class="st0" d="M10,26.2c0,0.7,0.5,1.2,1.1,1.2h1.1c0.6,0,1.1-0.6,1.1-1.2v-5H10V26.2z"/>
	<path class="st0" d="M15.3,26.2c0,0.7,0.5,1.2,1.1,1.2c0.2,0,0.5-0.1,0.7-0.3l5.3-5c0.3-0.2,0.4-0.6,0.4-1h-7.4V26.2z"/>
</g>
</svg>
