<?xml version="1.0" encoding="utf-8"?>
<!-- Generator: Adobe Illustrator 28.0.0, SVG Export Plug-In . SVG Version: 6.00 Build 0)  -->
<svg version="1.1" id="Layer_1" xmlns="http://www.w3.org/2000/svg" xmlns:xlink="http://www.w3.org/1999/xlink" x="0px" y="0px"
	 viewBox="0 0 32 32" style="enable-background:new 0 0 32 32;" xml:space="preserve">
<style type="text/css">
	.st0{fill:#FFFFFF;}
</style>
<g>
	<path class="st0" d="M18.2,21.1c0-0.6-0.2-1.1-0.6-1.6c-0.4-0.4-1-0.6-1.6-0.6s-1.1,0.2-1.6,0.6c-0.4,0.4-0.6,1-0.6,1.6v0.1
		L18.2,21.1C18.2,21.2,18.2,21.1,18.2,21.1z"/>
	<circle class="st0" cx="25.8" cy="16" r="0.3"/>
	<polygon class="st0" points="11.8,3.4 20.2,3.4 20.2,5.7 21.4,5.7 21.4,2.2 10.6,2.2 10.6,5.7 11.8,5.7 	"/>
	<path class="st0" d="M25.8,13.5c-1.4,0-2.2,1.1-2.2,2.5s0.8,2.5,2.2,2.5s2.5-1.1,2.5-2.5S27.1,13.5,25.8,13.5z M25.8,17.2
		c-0.6,0-1.1-0.5-1.1-1.1s0.5-1.1,1.1-1.1s1.1,0.5,1.1,1.1S26.4,17.2,25.8,17.2z"/>
	<path class="st0" d="M6.3,15.7C6.1,15.7,6,15.8,6,16c0,0.2,0.1,0.3,0.3,0.3c0.2,0,0.3-0.1,0.3-0.3C6.6,15.8,6.5,15.7,6.3,15.7z"/>
	<path class="st0" d="M30.4,6.2H1.6v15h7.8v-1c0-0.1,0-0.2,0.1-0.2c0.1-0.1,0.1-0.1,0.2-0.1l1.6-0.3c0.1-0.3,0.3-0.5,0.3-0.8
		c-0.3-0.3-0.5-0.7-0.9-1.1c-0.1-0.1-0.1-0.2-0.1-0.2c0-0.1,0-0.1,0.1-0.2c0.2-0.2,0.4-0.5,0.9-0.9c0.4-0.4,0.7-0.6,0.8-0.6
		s0.2,0,0.3,0.1l1.1,0.9c0.3-0.1,0.5-0.3,0.8-0.3c0.1-0.8,0.2-1.3,0.3-1.6c0-0.2,0.2-0.3,0.3-0.3h1.9c0.1,0,0.2,0,0.2,0.1
		s0.1,0.1,0.1,0.2l0.3,1.6c0.3,0.1,0.5,0.2,0.8,0.3l1.2-0.9c0.1-0.1,0.1-0.1,0.2-0.1s0.2,0,0.2,0.1c0.7,0.7,1.2,1.1,1.4,1.5
		c0,0.1,0.1,0.1,0.1,0.2s0,0.2-0.1,0.2c-0.1,0.1-0.3,0.3-0.4,0.5s-0.4,0.3-0.5,0.5c0.2,0.3,0.3,0.5,0.3,0.9l1.6,0.3
		c0.1,0,0.2,0.1,0.2,0.1s0.1,0.1,0.1,0.2v1h7.8V6.2H30.4z M12.4,7.2h7.2v1.3h-7.2C12.4,8.5,12.4,7.2,12.4,7.2z M6.3,19.4
		c-1.9,0-3.4-1.5-3.4-3.4s1.5-3.4,3.4-3.4s3.4,1.5,3.4,3.4C9.7,17.9,8.2,19.4,6.3,19.4z M3.3,10.8V9.5h25.5v1.3H3.3z M25.8,19.3
		c-1.8,0-3.3-1.5-3.3-3.3s1.5-3.3,3.3-3.3s3.3,1.5,3.3,3.3S27.6,19.3,25.8,19.3z"/>
	<path class="st0" d="M6.3,13.5c-1.4,0-2.5,1.1-2.5,2.5s1.1,2.5,2.5,2.5s2.5-1.1,2.5-2.5S7.7,13.5,6.3,13.5z M6.3,17.2
		c-0.6,0-1.2-0.5-1.2-1.2s0.5-1.2,1.2-1.2s1.2,0.5,1.2,1.2C7.5,16.7,6.9,17.2,6.3,17.2z"/>
	<path class="st0" d="M17.6,22.7c-0.4,0.4-1,0.6-1.6,0.6s-1.1-0.2-1.6-0.6c-0.4-0.4-0.6-0.9-0.6-1.5H9.5v1c0,0.1,0,0.1,0.1,0.2
		c0,0,0.1,0.1,0.2,0.1l1.6,0.3c0.1,0.3,0.2,0.6,0.3,0.9c-0.1,0.2-0.3,0.3-0.4,0.6c-0.2,0.2-0.3,0.4-0.4,0.5c-0.1,0-0.1,0.1-0.1,0.2
		s0.1,0.1,0.1,0.2c0.2,0.3,0.7,0.8,1.4,1.4c0,0.1,0.1,0.1,0.2,0.1c0.1,0,0.1,0,0.2-0.1l1.2-0.9c0.3,0.2,0.5,0.3,0.8,0.3l0.3,1.6
		c0,0.1,0.1,0.1,0.1,0.2s0.1,0.1,0.2,0.1h1.9c0.2,0,0.3-0.1,0.3-0.3c0.1-0.3,0.2-0.8,0.3-1.6c0.3-0.1,0.5-0.3,0.8-0.3l1,0.9
		c0.1,0.1,0.2,0.1,0.3,0.1c0.1,0,0.3-0.2,0.8-0.6c0.4-0.4,0.7-0.8,0.9-1c0.1,0,0.1-0.1,0.1-0.2c0,0,0-0.1-0.1-0.2
		c-0.3-0.4-0.7-0.9-0.9-1.1c0.1-0.3,0.3-0.4,0.3-0.8l1.6-0.3c0.1,0,0.1,0,0.2-0.1c0.1,0,0.1-0.1,0.1-0.2v-1h-4.3
		C18.2,21.8,18,22.3,17.6,22.7z"/>
</g>
</svg>
