<?xml version="1.0" encoding="utf-8"?>
<!-- Generator: Adobe Illustrator 28.0.0, SVG Export Plug-In . SVG Version: 6.00 Build 0)  -->
<svg version="1.1" id="Layer_1" xmlns="http://www.w3.org/2000/svg" xmlns:xlink="http://www.w3.org/1999/xlink" x="0px" y="0px"
	 viewBox="0 0 32 32" style="enable-background:new 0 0 32 32;" xml:space="preserve">
<style type="text/css">
	.st0{fill:#FFFFFF;}
</style>
<path class="st0" d="M24.8,2.2c-0.8-0.8-2-0.8-2.8,0c-0.8,0.8-0.8,2,0,2.8c6.1,6.1,6.1,15.9,0,22c-0.8,0.8-0.8,2,0,2.8
	c0.8,0.8,2,0.8,2.8,0C32.4,22.1,32.4,9.8,24.8,2.2z M19.3,7.7c-0.8-0.8-2-0.8-2.8,0c-0.8,0.8-0.7,2,0.1,2.7c3,3,3.1,7.9,0,11
	c-0.8,0.8-0.8,2,0,2.8c0.8,0.8,2,0.8,2.8,0C23.9,19.6,23.9,12.3,19.3,7.7z"/>
<path class="st0" d="M1.6,23.5c0,1,0.8,1.9,1.9,1.9c0.4,0,0.7-0.1,1-0.3l11.3-7.5c0.9-0.6,1.1-1.7,0.5-2.6c-0.1-0.2-0.3-0.4-0.5-0.5
	L4.5,6.9c-0.9-0.6-2-0.3-2.6,0.5C1.7,7.7,1.6,8,1.6,8.4V23.5z"/>
</svg>
