<?xml version="1.0" encoding="utf-8"?>
<!-- Generator: Adobe Illustrator 28.0.0, SVG Export Plug-In . SVG Version: 6.00 Build 0)  -->
<svg version="1.1" id="Layer_1" xmlns="http://www.w3.org/2000/svg" xmlns:xlink="http://www.w3.org/1999/xlink" x="0px" y="0px"
	 viewBox="0 0 32 32" style="enable-background:new 0 0 32 32;" xml:space="preserve">
<style type="text/css">
	.st0{fill:#FFFFFF;}
</style>
<path class="st0" d="M24.8,2.2c-0.8-0.8-2-0.8-2.8,0c-0.8,0.8-0.8,2,0,2.8c6.1,6.1,6.1,15.9,0,22c-0.8,0.8-0.8,2,0,2.8
	c0.8,0.8,2,0.8,2.8,0C32.4,22.1,32.4,9.8,24.8,2.2z M19.3,7.7c-0.8-0.8-2-0.8-2.8,0c-0.8,0.8-0.7,2,0.1,2.7c3,3,3.1,7.9,0,11
	c-0.8,0.8-0.8,2,0,2.8c0.8,0.8,2,0.8,2.8,0C23.9,19.6,23.9,12.3,19.3,7.7z"/>
<g>
	<g>
		<g>
			<path class="st0" d="M16.8,17.7l-1.3-1.2v-1.1l1.3-1.2c0.1-0.1,0.2-0.3,0.1-0.5l-0.7-1.7c-0.1-0.2-0.2-0.3-0.4-0.3L14,12
				l-0.7-0.7l0.1-1.8c0-0.2-0.1-0.3-0.3-0.4l-1.7-0.7c-0.2-0.1-0.4,0-0.5,0.1L9.8,9.8H8.7L7.5,8.5C7.4,8.3,7.2,8.3,7.1,8.3L5.4,9
				C5.2,9.1,5.1,9.3,5.1,9.5l0.1,1.8L4.5,12l-1.8-0.1c-0.2,0-0.3,0.1-0.4,0.3l-0.7,1.7c-0.1,0.2,0,0.4,0.1,0.5L3,15.5v1.1l-1.3,1.2
				c-0.1,0.1-0.2,0.3-0.1,0.5l0.7,1.7c0.1,0.2,0.2,0.3,0.4,0.3L4.5,20l0.7,0.7l-0.1,1.8c0,0.2,0.1,0.3,0.3,0.4l1.7,0.7
				c0.2,0.1,0.4,0,0.5-0.1l1.2-1.3h1.1l1.2,1.3c0.1,0.1,0.2,0.1,0.3,0.1c0.1,0,0.1,0,0.2,0l1.7-0.7c0.2-0.1,0.3-0.2,0.3-0.4
				l-0.1-1.8L14,20l1.8,0.1c0.2,0,0.3-0.1,0.4-0.3l0.7-1.7C17,18,16.9,17.8,16.8,17.7z M13.7,18.3l-1.2-0.1c-0.1,0-0.2,0-0.2,0.1
				l-0.7,0.7c-0.1,0.1-0.1,0.1-0.1,0.2l0.1,1.2l-0.8,0.3L10,19.9c-0.1-0.1-0.1-0.1-0.2-0.1h-1c-0.1,0-0.2,0-0.2,0.1l-0.8,0.9
				l-0.8-0.3L7,19.3c0-0.1,0-0.2-0.1-0.2l-0.7-0.7C6.1,18.3,6,18.2,6,18.3l-1.2,0.1l-0.3-0.8l0.9-0.8c0.1-0.1,0.1-0.1,0.1-0.2v-1
				c0-0.1,0-0.2-0.1-0.2l-0.9-0.8l0.3-0.8L6,13.7c0.1,0,0.2,0,0.2-0.1l0.7-0.7C7,12.9,7,12.8,7,12.7l-0.1-1.2l0.8-0.3l0.8,0.9
				c0.1,0.1,0.1,0.1,0.2,0.1h1c0.1,0,0.2,0,0.2-0.1l0.8-0.9l0.8,0.3l-0.1,1.2c0,0.1,0,0.2,0.1,0.2l0.7,0.7c0.1,0.1,0.1,0.1,0.2,0.1
				l1.2-0.1l0.3,0.8l-0.9,0.8c-0.1,0.1-0.1,0.1-0.1,0.2v1c0,0.1,0,0.2,0.1,0.2l0.9,0.8L13.7,18.3z"/>
		</g>
	</g>
</g>
</svg>
