<?xml version="1.0" encoding="utf-8"?>
<!-- Generator: Adobe Illustrator 28.0.0, SVG Export Plug-In . SVG Version: 6.00 Build 0)  -->
<svg version="1.1" id="Layer_1" xmlns="http://www.w3.org/2000/svg" xmlns:xlink="http://www.w3.org/1999/xlink" x="0px" y="0px"
	 viewBox="0 0 32 32" style="enable-background:new 0 0 32 32;" xml:space="preserve">
<style type="text/css">
	.st0{fill:#FFFFFF;}
</style>
<g>
	<path class="st0" d="M9.6,18.5c-0.9,0-1.7,0.4-2.3,1c-0.6,0.6-1,1.5-1,2.4c0,1.8,1.5,3.3,3.3,3.3s3.3-1.5,3.3-3.3
		c0-0.9-0.3-1.7-1-2.4C11.3,18.9,10.4,18.5,9.6,18.5z M9.6,23.4c-0.8,0-1.5-0.7-1.5-1.5c0-0.9,0.7-1.6,1.5-1.6
		c0.8,0,1.5,0.7,1.5,1.6C11.1,22.7,10.4,23.4,9.6,23.4z"/>
	<path class="st0" d="M22.4,18.5c-1.8,0-3.3,1.5-3.3,3.4c0,1.9,1.4,3.3,3.3,3.3s3.3-1.5,3.3-3.3c0-0.9-0.3-1.7-1-2.4
		C24.1,18.8,23.3,18.5,22.4,18.5z M22.4,23.4c-0.8,0-1.5-0.7-1.5-1.5c0-0.9,0.7-1.6,1.5-1.6c0.8,0,1.5,0.7,1.5,1.6
		C24,22.7,23.3,23.4,22.4,23.4z"/>
	<path class="st0" d="M29.7,7.4H2.3C2,7.4,1.7,7.7,1.7,8v13.6c0,0.3,0.3,0.6,0.6,0.6h2.4c0.3,0,0.6-0.3,0.6-0.6S5,21,4.7,21H2.9
		v-2.5v-1.2h26.2V16h-3c-0.3,0-0.5-0.2-0.6-0.5l-1.2-4.9c0-0.2,0-0.4,0.1-0.5s0.3-0.2,0.5-0.2h4.2v1.5h-2.5c-0.2,0-0.4,0.2-0.4,0.5
		l0.7,2.3c0,0.2,0.2,0.3,0.4,0.3h1.8v4V21h-1.8c-0.3,0-0.6,0.3-0.6,0.6s0.3,0.6,0.6,0.6h2.4c0.3,0,0.6-0.3,0.6-0.6V8
		C30.3,7.7,30,7.4,29.7,7.4z M9.8,15c0,0.4-0.3,0.7-0.7,0.7H5c-0.4,0-0.7-0.3-0.7-0.7v-4.2c0-0.4,0.3-0.7,0.7-0.7h4.1
		c0.4,0,0.7,0.3,0.7,0.7V15z M16.3,15c0,0.4-0.3,0.7-0.7,0.7h-4.1c-0.4,0-0.7-0.3-0.7-0.7v-4.2c0-0.4,0.3-0.7,0.7-0.7h4.1
		c0.4,0,0.7,0.3,0.7,0.7V15z M22.9,15c0,0.4-0.3,0.7-0.7,0.7h-4.1c-0.4,0-0.7-0.3-0.7-0.7v-4.2c0-0.4,0.3-0.7,0.7-0.7h4.1
		c0.4,0,0.7,0.3,0.7,0.7V15z"/>
	<path class="st0" d="M19.4,14.2h1.5c0.3,0,0.5-0.2,0.5-0.5v-1.6c0-0.3-0.2-0.5-0.5-0.5h-1.5c-0.3,0-0.5,0.2-0.5,0.5v1.6
		C18.9,14,19.2,14.2,19.4,14.2z"/>
	<path class="st0" d="M12.9,14.2h1.5c0.3,0,0.5-0.2,0.5-0.5v-1.6c0-0.3-0.2-0.5-0.5-0.5h-1.5c-0.3,0-0.5,0.2-0.5,0.5v1.6
		C12.4,14,12.6,14.2,12.9,14.2z"/>
	<path class="st0" d="M6.3,14.2h1.5c0.3,0,0.5-0.2,0.5-0.5v-1.6c0-0.3-0.2-0.5-0.5-0.5H6.3c-0.3,0-0.5,0.2-0.5,0.5v1.6
		C5.8,14,6,14.2,6.3,14.2z"/>
</g>
</svg>
