<?xml version="1.0" encoding="utf-8"?>
<!-- Generator: Adobe Illustrator 28.1.0, SVG Export Plug-In . SVG Version: 6.00 Build 0)  -->
<svg version="1.1" id="Layer_1" xmlns="http://www.w3.org/2000/svg" xmlns:xlink="http://www.w3.org/1999/xlink" x="0px" y="0px"
	 viewBox="0 0 64 64" style="enable-background:new 0 0 64 64;" xml:space="preserve">
<style type="text/css">
	.st0{fill:#FFFFFF;}
	.st1{fill-rule:evenodd;clip-rule:evenodd;fill:#FFFFFF;}
</style>
<path class="st0" d="M35.7,2c-4.1,0-7.5,3.1-7.8,7.2c-3.2-2.9-8.1-2.7-11,0.5s-2.7,8.1,0.5,11c0.8,0.7,1.7,1.3,2.8,1.6v5.7
	c0,1.4,1.2,2.6,2.6,2.6h15.6c1.4,0,2.6-1.2,2.6-2.6v-2.6l7.8,5.2V15.1l-7.8,5.2v-4.6c3.2-2.9,3.5-7.8,0.6-11C40,3,37.9,2.1,35.7,2
	L35.7,2z"/>
<path class="st1" d="M33.9,19.8c0.3,0.2,0.5,0.4,0.6,0.7l11.3,20l0.3-0.2c0.5-0.3,1.2-0.1,1.5,0.5l5.6,10.7c0.3,0.5,0.1,1.2-0.5,1.5
	l-0.3,0.2l0.6,1.2c0.5,1,0.1,2.2-0.9,2.7c-1,0.5-2.2,0.1-2.7-0.9l0,0L48.8,55l-0.2,0.1c-0.5,0.3-1.2,0.1-1.5-0.5L41.6,44
	c-0.3-0.5-0.1-1.2,0.5-1.5l0.2-0.1l-7.1-11.9c-0.4-0.7-1.4-0.4-1.4,0.3v13.7h0.2c0.6,0,1.1,0.5,1.1,1.1l0,0v12.1
	c0,0.6-0.5,1.1-1.1,1.1h-0.2v1.3c-0.1,1.1-1.1,2-2.2,1.9c-1-0.1-1.8-0.9-1.9-1.9v-1.3h-0.3c-0.6,0-1.1-0.5-1.1-1.1V45.6
	c0-0.6,0.5-1.1,1.1-1.1h0.3V29.8c0-0.8-1-1-1.4-0.3l-6.5,13.1l0.2,0.1c0.5,0.3,0.7,0.9,0.5,1.5l-5.6,10.7c-0.3,0.5-0.9,0.7-1.5,0.5
	l-0.2-0.1l-0.6,1.2c-0.5,1-1.7,1.4-2.7,0.9s-1.4-1.7-0.9-2.7l0,0l0.6-1.2l-0.3-0.2c-0.5-0.3-0.7-0.9-0.5-1.5l5.6-10.7
	c0.3-0.5,0.9-0.7,1.5-0.5l0.3,0.2l10.1-20.1c0.1-0.3,0.4-0.5,0.6-0.7"/>
</svg>
