<?xml version="1.0" encoding="utf-8"?>
<!-- Generator: Adobe Illustrator 28.0.0, SVG Export Plug-In . SVG Version: 6.00 Build 0)  -->
<svg version="1.1" id="Layer_1" xmlns="http://www.w3.org/2000/svg" xmlns:xlink="http://www.w3.org/1999/xlink" x="0px" y="0px"
	 viewBox="0 0 32 32" style="enable-background:new 0 0 32 32;" xml:space="preserve">
<style type="text/css">
	.st0{fill:none;stroke:#FFFFFF;stroke-width:2;}
	.st1{fill:#FFFFFF;}
</style>
<circle class="st0" cx="16" cy="16" r="13.6"/>
<g>
	<path class="st1" d="M11.2,14.5c0,0.2-0.1,0.3-0.3,0.3h-0.5c-0.2,0-0.3-0.1-0.3-0.3v-2.2H7.4v2.2c0,0.2-0.1,0.3-0.3,0.3H6.7
		c-0.2,0-0.3-0.1-0.3-0.3V8.9c0-0.8,0.3-1,1-1h2.6c0.7,0,1,0.2,1,1V14.5z M10.2,11.4V9.2c0-0.3-0.1-0.3-0.3-0.3H7.8
		c-0.3,0-0.3,0.1-0.3,0.3v2.2H10.2z"/>
	<path class="st1" d="M15.6,14.7h-2.3c-0.7,0-1-0.2-1-1V9.8c0-0.2,0.1-0.3,0.3-0.3H13c0.2,0,0.3,0.1,0.3,0.3v3.7
		c0,0.3,0.1,0.3,0.3,0.3h1.8c0.3,0,0.3-0.1,0.3-0.3V9.8c0-0.2,0.1-0.3,0.3-0.3h0.5c0.2,0,0.3,0.1,0.3,0.3v3.9
		C16.7,14.6,16.3,14.7,15.6,14.7z"/>
	<path class="st1" d="M20.3,14.5c0,0.2-0.1,0.3-0.3,0.3h-0.8c-0.7,0-1-0.2-1-1v-3.3h-0.6c-0.2,0-0.3-0.1-0.3-0.3V9.8
		c0-0.2,0.1-0.3,0.3-0.3h0.6V7.9c0-0.2,0.1-0.3,0.3-0.3H19c0.2,0,0.3,0.1,0.3,0.3v1.7H20c0.2,0,0.3,0.1,0.3,0.3v0.4
		c0,0.2-0.1,0.3-0.3,0.3h-0.8v3c0,0.3,0.1,0.3,0.3,0.3H20c0.2,0,0.3,0.1,0.3,0.3V14.5z"/>
	<path class="st1" d="M24.3,14.7H22c-0.7,0-1-0.2-1-1v-3.2c0-0.8,0.3-1,1-1h2.3c0.7,0,1,0.2,1,1v3.2C25.3,14.6,25,14.7,24.3,14.7z
		 M24.4,13.5v-2.7c0-0.3-0.1-0.3-0.3-0.3h-1.8c-0.3,0-0.3,0.1-0.3,0.3v2.7c0,0.3,0.1,0.3,0.3,0.3H24C24.3,13.8,24.4,13.7,24.4,13.5z
		"/>
	<path class="st1" d="M10.5,22.9c0,0.2-0.1,0.3-0.3,0.3H6.7c-0.2,0-0.3-0.1-0.3-0.3v-6.3c0-0.2,0.1-0.3,0.3-0.3h0.5
		c0.2,0,0.3,0.1,0.3,0.3v5.6h2.8c0.2,0,0.3,0.1,0.3,0.3V22.9z"/>
	<path class="st1" d="M14.5,23.2h-2.3c-0.7,0-1-0.2-1-1V19c0-0.8,0.3-1,1-1h2.3c0.7,0,1,0.2,1,1v3.2C15.5,23,15.2,23.2,14.5,23.2z
		 M14.5,21.9v-2.7c0-0.3-0.1-0.3-0.3-0.3h-1.8c-0.3,0-0.3,0.1-0.3,0.3v2.7c0,0.3,0.1,0.3,0.3,0.3h1.8C14.5,22.3,14.5,22.2,14.5,21.9
		z"/>
	<path class="st1" d="M19.8,23.2h-2.3c-0.7,0-1-0.2-1-1V21c0-0.8,0.3-1,1-1h2.4v-0.7c0-0.3-0.1-0.3-0.3-0.3h-2.7
		c-0.2,0-0.3-0.1-0.3-0.3v-0.4c0-0.2,0.1-0.3,0.3-0.3h3c0.7,0,1,0.2,1,1v3.2C20.8,23,20.5,23.2,19.8,23.2z M19.9,21.9v-1.1h-2.1
		c-0.3,0-0.3,0.1-0.3,0.3v0.7c0,0.3,0.1,0.3,0.3,0.3h1.8C19.8,22.3,19.9,22.2,19.9,21.9z"/>
	<path class="st1" d="M25.2,23.2h-2.3c-0.7,0-1-0.2-1-1V19c0-0.8,0.3-1,1-1h2.4v-2.1c0-0.2,0.1-0.3,0.3-0.3H26
		c0.2,0,0.3,0.1,0.3,0.3v6.3C26.2,23,25.9,23.2,25.2,23.2z M25.3,21.9v-3h-2.1c-0.3,0-0.3,0.1-0.3,0.3v2.7c0,0.3,0.1,0.3,0.3,0.3
		h1.8C25.2,22.3,25.3,22.2,25.3,21.9z"/>
</g>
</svg>
