<?xml version="1.0" encoding="utf-8"?>
<!-- Generator: Adobe Illustrator 28.0.0, SVG Export Plug-In . SVG Version: 6.00 Build 0)  -->
<svg version="1.1" id="Layer_1" xmlns="http://www.w3.org/2000/svg" xmlns:xlink="http://www.w3.org/1999/xlink" x="0px" y="0px"
	 viewBox="0 0 32 32" style="enable-background:new 0 0 32 32;" xml:space="preserve">
<style type="text/css">
	.st0{fill:#FFFFFF;}
</style>
<path class="st0" d="M26.7,5.5L8,4.1C5.9,4,4.1,5.5,3.9,7.6L3.1,18.8c-0.2,2.1,1.4,3.9,3.5,4l18.7,1.4c2.1,0.1,3.9-1.4,4-3.5
	l0.8-11.2C30.3,7.5,28.8,5.7,26.7,5.5L26.7,5.5L26.7,5.5z M25.5,22.4L6.7,21c-1-0.1-1.8-1-1.7-2c0.1-1,1-1.8,2-1.7l18.8,1.4
	c1,0.1,1.8,1,1.7,2S26.5,22.5,25.5,22.4z M25.9,16.8L7.1,15.4c-1-0.1-1.8-1-1.7-2c0.1-1,1-1.8,2-1.7L26.2,13c1,0.1,1.8,1,1.7,2
	S26.9,16.8,25.9,16.8z M26.3,11.1L7.5,9.7c-1-0.1-1.8-1-1.7-2s1-1.8,2-1.7l18.8,1.4c1,0.1,1.8,1,1.7,2S27.4,11.2,26.3,11.1z"/>
<path class="st0" d="M5,20.6c-0.3,0-1.5,0.1-2.3,1c-0.5,0.6-1,1.4-1.1,2.4c0,0.5,0.4,1.6,1,2.7c0.2,0.4,0.6,0.7,0.9,1
	C3.8,28,3.9,28,3.9,28c0.2-0.1-0.8-1.6-0.7-2.9c0.1-0.8,0.7-1.8,2.8-2.9"/>
</svg>
