<?xml version="1.0" encoding="utf-8"?>
<!-- Generator: Adobe Illustrator 28.0.0, SVG Export Plug-In . SVG Version: 6.00 Build 0)  -->
<svg version="1.1" id="Layer_1" xmlns="http://www.w3.org/2000/svg" xmlns:xlink="http://www.w3.org/1999/xlink" x="0px" y="0px"
	 viewBox="0 0 32 32" style="enable-background:new 0 0 32 32;" xml:space="preserve">
<style type="text/css">
	.st0{fill:#FFFFFF;stroke:#FFFFFF;stroke-miterlimit:10;}
	.st1{fill:#FFFFFF;}
</style>
<g>
	<g>
		<path class="st0" d="M15,3.8c-1.3,0-2.3,1-2.3,2.3s1,2.3,2.3,2.3s2.3-1,2.3-2.3S16.3,3.8,15,3.8z M15,7.6c-0.8,0-1.5-0.7-1.5-1.5
			s0.7-1.5,1.5-1.5s1.5,0.7,1.5,1.5S15.8,7.6,15,7.6z"/>
		<path class="st0" d="M20,2.4c-0.4-0.5-1-0.7-1.6-0.7h-4.3c-0.9,0-1.8,0.3-2.4,1c-0.7,0.6-1,1.5-1,2.4v4.3c0,0.6,0.3,1.2,0.7,1.6
			l10.4,10.4l8.7-8.7L20,2.4L20,2.4z M21.6,20.3l-9.8-9.8c-0.3-0.3-0.5-0.7-0.5-1.1V5.1c0-0.7,0.3-1.4,0.8-1.9s1.2-0.8,1.9-0.8h4.3
			c0.4,0,0.8,0.2,1.1,0.5l9.8,9.8L21.6,20.3z"/>
	</g>
</g>
<path class="st1" d="M3.8,27.4l0.8,0.8c0.5,0.5,1.4,0.5,2,0l3.7-3.7l4,4l1.2-11.1c0.1-0.6-0.4-1.1-1.1-1.1l-11,1.3l4.1,4.1l-3.7,3.7
	C3.3,26,3.3,26.9,3.8,27.4z"/>
</svg>
