<?xml version="1.0" encoding="utf-8"?>
<!-- Generator: Adobe Illustrator 28.0.0, SVG Export Plug-In . SVG Version: 6.00 Build 0)  -->
<svg version="1.1" id="Layer_1" xmlns="http://www.w3.org/2000/svg" xmlns:xlink="http://www.w3.org/1999/xlink" x="0px" y="0px"
	 viewBox="0 0 32 32" style="enable-background:new 0 0 32 32;" xml:space="preserve">
<style type="text/css">
	.st0{fill:#FFFFFF;}
	.st1{fill-opacity:0.2;}
</style>
<path class="st0" d="M7.4,21.2c2.9,4.7,9.1,6.1,13.7,3.4c2-1.2,3.4-2.9,4.2-5.2h3.4c-2,7.1-9.1,11.5-16.4,9.6
	c-3.2-0.7-5.9-2.7-7.6-5.4l-4.2,4.2V17.7h10.6L7.4,21.2L7.4,21.2z M24.6,10.8c-2.9-4.7-9.1-6.1-13.7-3.4c-2,1.2-3.4,2.9-4.2,5.2H3.2
	C5.2,5.4,12.3,1,19.7,3c3.2,0.7,5.9,2.7,7.6,5.4l4.2-4.2v10.1H20.9L24.6,10.8z"/>
<path class="st0" d="M14.6,11c-0.8,0-1.4,0.6-1.4,1.4v5H11v2.2c0,0.8,0.6,1.4,1.4,1.4h5c0.8,0,1.4-0.6,1.4-1.4v-5.7H21v-1.4
	c0-0.8-0.6-1.4-1.4-1.4h-5V11z"/>
<path class="st1" d="M14.6,11c-0.8,0-1.4,0.6-1.4,1.4v5H11v2.2c0,0.8,0.6,1.4,1.4,1.4c0.8,0,1.4-0.6,1.4-1.4v-7.3
	c0-0.4,0.3-0.7,0.7-0.7s0.7,0.3,0.7,0.7v2.2h3.6v-0.7H16v-1.4C16,11.6,15.4,11,14.6,11z M11.7,18.2h1.4v1.4c0,0.4-0.3,0.7-0.7,0.7
	s-0.7-0.3-0.7-0.7V18.2z"/>
</svg>
