<?xml version="1.0" encoding="utf-8"?>
<!-- Generator: Adobe Illustrator 28.0.0, SVG Export Plug-In . SVG Version: 6.00 Build 0)  -->
<svg version="1.1" id="Layer_1" xmlns="http://www.w3.org/2000/svg" xmlns:xlink="http://www.w3.org/1999/xlink" x="0px" y="0px"
	 viewBox="0 0 32 32" style="enable-background:new 0 0 32 32;" xml:space="preserve">
<style type="text/css">
	.st0{fill:none;stroke:#FFFFFF;stroke-width:3;stroke-linecap:round;stroke-linejoin:round;stroke-miterlimit:133.3333;}
	.st1{fill:none;stroke:#FFFFFF;stroke-width:1.75;}
</style>
<path class="st0" d="M12,4.8h-0.8C9.4,4.8,8,6.2,8,8v3.2C8,12.8,7,16,3.1,16C4.8,16,8,17,8,20.8V24c0,1.8,1.4,3.2,3.2,3.2H12
	 M20,4.8h0.8C22.6,4.8,24,6.2,24,8v3.2c0,1.6,1,4.8,4.8,4.8c-1.6,0-4.8,1-4.8,4.8V24c0,1.8-1.4,3.2-3.2,3.2H20"/>
<circle class="st1" cx="16" cy="16" r="4"/>
</svg>
