<?xml version="1.0" encoding="utf-8"?>
<!-- Generator: Adobe Illustrator 28.0.0, SVG Export Plug-In . SVG Version: 6.00 Build 0)  -->
<svg version="1.1" id="Layer_1" xmlns="http://www.w3.org/2000/svg" xmlns:xlink="http://www.w3.org/1999/xlink" x="0px" y="0px"
	 viewBox="0 0 32 32" style="enable-background:new 0 0 32 32;" xml:space="preserve">
<style type="text/css">
	.st0{fill:#FFFFFF;}
</style>
<path class="st0" d="M13.9,7.7H7.7c-2.9,0-5.2,2.3-5.2,5.2s2.3,5.2,5.2,5.2c0.6,0,1,0.5,1,1s-0.5,1-1,1H1.5v4.1h6.2
	c2.9,0,5.2-2.3,5.2-5.2s-2.3-5.2-5.2-5.2c-0.6,0-1-0.5-1-1c0-0.6,0.5-1,1-1h6.2V7.7z M16,7.7v10.3c0,3.4,2.8,6.2,6.2,6.2v-4.1
	c-1.1,0-2.1-0.9-2.1-2.1V16h2.1v-4.1h-2.1V7.7H16z M24.3,24.3h4.1v-6.2c0-1.1,0.9-2.1,2.1-2.1v-4.1c-3.4,0-6.2,2.8-6.2,6.2V24.3z"/>
</svg>
