<?xml version="1.0" encoding="utf-8"?>
<!-- Generator: Adobe Illustrator 28.0.0, SVG Export Plug-In . SVG Version: 6.00 Build 0)  -->
<svg version="1.1" id="Layer_1" xmlns="http://www.w3.org/2000/svg" xmlns:xlink="http://www.w3.org/1999/xlink" x="0px" y="0px"
	 viewBox="0 0 32 32" style="enable-background:new 0 0 32 32;" xml:space="preserve">
<style type="text/css">
	.st0{fill:#FFFFFF;}
</style>
<path class="st0" d="M7,8.8c-3,0-5.4,2.4-5.4,5.4v9h3.6v-3.6h3.6V16H5.2v-1.8c0-1,0.8-1.8,1.8-1.8h1.8V8.8H7z M12.4,8.8v9
	c0,3,2.4,5.4,5.4,5.4h1.8v-3.6h-1.8c-1,0-1.8-0.8-1.8-1.8v-9H12.4z M23.2,8.8v9c0,3,2.4,5.4,5.4,5.4h1.8v-3.6h-1.8
	c-1,0-1.8-0.8-1.8-1.8V16h3.6v-3.6h-3.6V8.8H23.2z"/>
</svg>
