<?xml version="1.0" encoding="utf-8"?>
<!-- Generator: Adobe Illustrator 28.0.0, SVG Export Plug-In . SVG Version: 6.00 Build 0)  -->
<svg version="1.1" id="Layer_1" xmlns="http://www.w3.org/2000/svg" xmlns:xlink="http://www.w3.org/1999/xlink" x="0px" y="0px"
	 viewBox="0 0 32 32" style="enable-background:new 0 0 32 32;" xml:space="preserve">
<style type="text/css">
	.st0{fill:#FFFFFF;}
</style>
<path class="st0" d="M24.8,10.9c-2.7,2.7-5.3,5.3-9.4,5.3H10v6.7h5.3c4,0,6.7,2.7,9.4,5.3L24.8,10.9L24.8,10.9z M26.1,16.2v6.7
	C29.6,22.9,29.6,16.3,26.1,16.2z M11.4,24.3v5.3h2.7l1.3-5.3C15.5,24.3,11.4,24.3,11.4,24.3z"/>
<path class="st0" d="M2.9,1.7L2,2.6C1.4,3.2,1.4,4.2,2,4.9l4.2,4.2l-4.6,4.6l12.7,1.4c0.7,0.1,1.3-0.5,1.2-1.2L14.1,1.2L9.4,5.9
	L5.2,1.7C4.5,1.1,3.5,1.1,2.9,1.7z"/>
</svg>
