<?xml version="1.0" encoding="utf-8"?>
<!-- Generator: Adobe Illustrator 28.0.0, SVG Export Plug-In . SVG Version: 6.00 Build 0)  -->
<svg version="1.1" id="Layer_1" xmlns="http://www.w3.org/2000/svg" xmlns:xlink="http://www.w3.org/1999/xlink" x="0px" y="0px"
	 viewBox="0 0 32 32" style="enable-background:new 0 0 32 32;" xml:space="preserve">
<style type="text/css">
	.st0{fill:#FFFFFF;stroke:#FFFFFF;stroke-miterlimit:10;}
	.st1{opacity:0.96;fill:#FFFFFF;stroke:#FFFFFF;stroke-miterlimit:10;}
	.st2{fill:#FFFFFF;}
</style>
<g>
	<g>
		<path class="st0" d="M15.4,3.4c-1.3,0-2.3,1-2.3,2.3C13,7,14.1,8,15.4,8c1.3,0,2.3-1,2.3-2.3C17.7,4.4,16.6,3.4,15.4,3.4z
			 M15.4,7.2c-0.8,0-1.5-0.7-1.5-1.5s0.7-1.5,1.5-1.5s1.5,0.7,1.5,1.5S16.2,7.2,15.4,7.2z"/>
		<path class="st1" d="M20.3,2c-0.4-0.5-1-0.7-1.6-0.7l-4.3,0c-0.9,0-1.8,0.3-2.4,1c-0.7,0.6-1,1.5-1,2.4l0,4.3
			c0,0.6,0.3,1.2,0.7,1.6L22,21.1l8.7-8.7L20.3,2L20.3,2z M22,19.9l-9.8-9.8c-0.3-0.3-0.5-0.7-0.5-1.1l0-4.3c0-0.7,0.3-1.4,0.8-1.9
			C13,2.3,13.6,2,14.3,2l4.3,0c0.4,0,0.8,0.2,1.1,0.5l9.8,9.8L22,19.9z"/>
	</g>
</g>
<path class="st2" d="M10.9,29.4l0.6,0.6c0.4,0.4,1.1,0.4,1.6,0l2.9-2.9l3.2,3.2l1-8.7c0.1-0.5-0.3-0.9-0.8-0.8l-8.7,1l3.2,3.2
	l-2.9,2.9C10.5,28.3,10.5,29,10.9,29.4z"/>
<path class="st2" d="M11.9,12.7l-0.6-0.6c-0.4-0.4-1.1-0.4-1.6,0l-3,3l-3.2-3.2l-1,8.9c-0.1,0.5,0.4,0.9,0.8,0.8l8.9-1L9,17.3l3-3
	C12.3,13.8,12.3,13.1,11.9,12.7z"/>
</svg>
