<?xml version="1.0" encoding="utf-8"?>
<!-- Generator: Adobe Illustrator 28.0.0, SVG Export Plug-In . SVG Version: 6.00 Build 0)  -->
<svg version="1.1" id="Layer_1" xmlns="http://www.w3.org/2000/svg" xmlns:xlink="http://www.w3.org/1999/xlink" x="0px" y="0px"
	 viewBox="0 0 32 32" style="enable-background:new 0 0 32 32;" xml:space="preserve">
<style type="text/css">
	.st0{fill:#FFFFFF;}
	.st1{fill-opacity:0.2;}
</style>
<path class="st0" d="M15,18.1l-0.9-0.9c-0.6-0.6-1.6-0.6-2.3,0l-4.2,4.2L3,16.8L1.6,29.5c-0.1,0.7,0.5,1.3,1.2,1.2l12.7-1.4
	l-4.7-4.7l4.2-4.2C15.6,19.7,15.6,18.7,15,18.1z"/>
<path class="st0" d="M20.1,1.8c-1.3,0-2.2,0.9-2.2,2.2v7.9h-3.5v3.5c0,1.3,0.9,2.2,2.2,2.2h7.9c1.3,0,2.2-0.9,2.2-2.2v-9h3.5V4.2
	C30.2,2.9,29.3,2,28,2h-7.9V1.8z"/>
<path class="st1" d="M20.1,1.8c-1.3,0-2.2,0.9-2.2,2.2v7.9h-3.5v3.5c0,1.3,0.9,2.2,2.2,2.2s2.2-0.9,2.2-2.2V4c0-0.6,0.5-1.1,1.1-1.1
	s1.1,0.5,1.1,1.1v3.5h5.7V6.4h-4.4V4.2C22.3,2.7,21.4,1.8,20.1,1.8z M15.6,13.1h2.2v2.2c0,0.6-0.5,1.1-1.1,1.1
	c-0.6,0-1.1-0.5-1.1-1.1V13.1z"/>
</svg>
