<?xml version="1.0" encoding="utf-8"?>
<!-- Generator: Adobe Illustrator 28.0.0, SVG Export Plug-In . SVG Version: 6.00 Build 0)  -->
<svg version="1.1" id="Layer_1" xmlns="http://www.w3.org/2000/svg" xmlns:xlink="http://www.w3.org/1999/xlink" x="0px" y="0px"
	 viewBox="0 0 32 32" style="enable-background:new 0 0 32 32;" xml:space="preserve">
<style type="text/css">
	.st0{fill:#FFFFFF;}
</style>
<path class="st0" d="M16,2l2.1,0.2c1.6,0.1,2.9,1.6,2.7,3.2l-0.9,12c-0.1,1.6-1.6,2.9-3.2,2.7l-2.1-0.2c-1.6-0.1-2.9-1.6-2.7-3.2
	l0.9-12C13,3.1,14.4,1.8,16,2z"/>
<path class="st0" d="M14.4,21.9l2.2,0.2c1.6,0.1,2.8,1.5,2.7,3.1l-0.2,2.2C19,29,17.6,30.2,16,30l-2.2-0.2c-1.6-0.1-2.8-1.5-2.7-3.1
	l0.2-2.2C11.5,23,12.9,21.8,14.4,21.9z"/>
</svg>
