<?xml version="1.0" encoding="utf-8"?>
<!-- Generator: Adobe Illustrator 28.0.0, SVG Export Plug-In . SVG Version: 6.00 Build 0)  -->
<svg version="1.1" id="Layer_1" xmlns="http://www.w3.org/2000/svg" xmlns:xlink="http://www.w3.org/1999/xlink" x="0px" y="0px"
	 viewBox="0 0 32 32" style="enable-background:new 0 0 32 32;" xml:space="preserve">
<style type="text/css">
	.st0{fill:#FFFFFF;}
	.st1{fill-opacity:0.2;}
</style>
<path class="st0" d="M1.8,29.7l0.9,0.9c0.6,0.6,1.6,0.6,2.3,0l4.2-4.2l4.6,4.6l1.4-12.7c0.1-0.7-0.5-1.3-1.2-1.2L1.3,18.5L6,23.2
	l-4.2,4.2C1.2,28.1,1.2,29.1,1.8,29.7z"/>
<path class="st0" d="M20.4,1.5c-1.3,0-2.2,0.9-2.2,2.2v7.9h-3.5v3.5c0,1.3,0.9,2.2,2.2,2.2h7.9c1.3,0,2.2-0.9,2.2-2.2v-9h3.5V3.9
	c0-1.3-0.9-2.2-2.2-2.2h-7.9V1.5z"/>
<path class="st1" d="M20.4,1.5c-1.3,0-2.2,0.9-2.2,2.2v7.9h-3.5v3.5c0,1.3,0.9,2.2,2.2,2.2s2.2-0.9,2.2-2.2V3.7
	c0-0.6,0.5-1.1,1.1-1.1s1.1,0.5,1.1,1.1v3.5H27V6.1h-4.4V3.9C22.6,2.4,21.7,1.5,20.4,1.5z M15.9,12.8h2.2V15c0,0.6-0.5,1.1-1.1,1.1
	s-1.1-0.5-1.1-1.1V12.8z"/>
</svg>
