<?xml version="1.0" encoding="utf-8"?>
<!-- Generator: Adobe Illustrator 28.0.0, SVG Export Plug-In . SVG Version: 6.00 Build 0)  -->
<svg version="1.1" id="Layer_1" xmlns="http://www.w3.org/2000/svg" xmlns:xlink="http://www.w3.org/1999/xlink" x="0px" y="0px"
	 viewBox="0 0 32 32" style="enable-background:new 0 0 32 32;" xml:space="preserve">
<style type="text/css">
	.st0{fill:none;stroke:#FFFFFF;stroke-width:3;stroke-linecap:round;stroke-linejoin:round;stroke-miterlimit:133.3333;}
	.st1{fill:#FFFFFF;}
	.st2{fill-opacity:0.2;}
</style>
<path class="st0" d="M12,4.8h-0.8C9.4,4.8,8,6.2,8,8v3.2C8,12.8,7,16,3.1,16C4.8,16,8,17,8,20.8V24c0,1.8,1.4,3.2,3.2,3.2H12
	 M20,4.8h0.8C22.6,4.8,24,6.2,24,8v3.2c0,1.6,1,4.8,4.8,4.8c-1.6,0-4.8,1-4.8,4.8V24c0,1.8-1.4,3.2-3.2,3.2H20"/>
<path class="st1" d="M14.6,11c-0.8,0-1.4,0.6-1.4,1.4v5H11v2.2c0,0.8,0.6,1.4,1.4,1.4h5c0.8,0,1.4-0.6,1.4-1.4v-5.7H21v-1.4
	c0-0.8-0.6-1.4-1.4-1.4H14.6z"/>
<path class="st2" d="M14.6,11c-0.8,0-1.4,0.6-1.4,1.4v5H11v2.2c0,0.8,0.6,1.4,1.4,1.4c0.8,0,1.4-0.6,1.4-1.4v-7.2
	c0-0.4,0.3-0.7,0.7-0.7c0.4,0,0.7,0.3,0.7,0.7v2.2h3.6v-0.7H16v-1.4C16,11.6,15.4,11,14.6,11z M11.7,18.2h1.4v1.4
	c0,0.4-0.3,0.7-0.7,0.7s-0.7-0.3-0.7-0.7V18.2z"/>
</svg>
