<?xml version="1.0" encoding="utf-8"?>
<!-- Generator: Adobe Illustrator 28.0.0, SVG Export Plug-In . SVG Version: 6.00 Build 0)  -->
<svg version="1.1" id="Layer_1" xmlns="http://www.w3.org/2000/svg" xmlns:xlink="http://www.w3.org/1999/xlink" x="0px" y="0px"
	 viewBox="0 0 32 32" style="enable-background:new 0 0 32 32;" xml:space="preserve">
<style type="text/css">
	.st0{fill:#FFFFFF;}
</style>
<path class="st0" d="M2.5,1.5c-0.6,0-1,0.4-1,1v12c0,0.6,0.4,1,1,1h12c0.6,0,1-0.4,1-1v-12c0-0.6-0.4-1-1-1H2.5z M3.5,3.5h10v10h-10
	V3.5z M8.4,5.5c-1.7,0-3,1.3-3,3s1.3,3,3,3s3-1.3,3-3S10.1,5.5,8.4,5.5z"/>
<path class="st0" d="M17.5,1.5c-0.6,0-1,0.4-1,1v12c0,0.6,0.4,1,1,1h12c0.6,0,1-0.4,1-1v-12c0-0.6-0.4-1-1-1H17.5z M18.5,3.5h10v10
	h-10V3.5z M23.5,5.5c-1.7,0-3,1.3-3,3s1.3,3,3,3s3-1.3,3-3S25.1,5.5,23.5,5.5z"/>
<path class="st0" d="M2.5,16.5c-0.6,0-1,0.4-1,1v12c0,0.6,0.4,1,1,1h12c0.6,0,1-0.4,1-1v-12c0-0.6-0.4-1-1-1H2.5z M3.5,18.5h10v10
	h-10V18.5z M8.5,20.5c-1.7,0-3,1.3-3,3s1.3,3,3,3s3-1.3,3-3S10.1,20.5,8.5,20.5z"/>
<path class="st0" d="M17.5,16.5c-0.6,0-1,0.4-1,1v12c0,0.6,0.4,1,1,1h12c0.6,0,1-0.4,1-1v-12c0-0.6-0.4-1-1-1H17.5z M18.5,18.5h10
	v10h-10V18.5z M23.5,20.5c-1.7,0-3,1.3-3,3s1.3,3,3,3s3-1.3,3-3S25.2,20.5,23.5,20.5z"/>
</svg>
