<?xml version="1.0" encoding="utf-8"?>
<!-- Generator: Adobe Illustrator 28.0.0, SVG Export Plug-In . SVG Version: 6.00 Build 0)  -->
<svg version="1.1" id="Layer_1" xmlns="http://www.w3.org/2000/svg" xmlns:xlink="http://www.w3.org/1999/xlink" x="0px" y="0px"
	 viewBox="0 0 32 32" style="enable-background:new 0 0 32 32;" xml:space="preserve">
<style type="text/css">
	.st0{fill:#FFFFFF;}
</style>
<path class="st0" d="M6.5,1.8c-1.3,0-2.4,1.1-2.4,2.4s1.1,2.4,2.4,2.4c10.5,0,19,8.5,19,19c0,1.3,1.1,2.4,2.4,2.4
	c1.3,0,2.4-1.1,2.4-2.4C30.2,12.4,19.6,1.8,6.5,1.8z M6.5,11.3c-1.3,0-2.4,1.1-2.4,2.4S5.2,16,6.5,16c5.2,0,9.5,4.2,9.5,9.5
	c0,1.3,1.1,2.4,2.4,2.4c1.3,0,2.4-1.1,2.4-2.4C20.7,17.6,14.4,11.3,6.5,11.3z M6.5,20.7c-2.6,0-4.7,2.1-4.7,4.7s2.1,4.7,4.7,4.7
	s4.7-2.1,4.7-4.7S9.1,20.7,6.5,20.7z"/>
</svg>
