<?xml version="1.0" encoding="utf-8"?>
<!-- Generator: Adobe Illustrator 28.0.0, SVG Export Plug-In . SVG Version: 6.00 Build 0)  -->
<svg version="1.1" id="Layer_1" xmlns="http://www.w3.org/2000/svg" xmlns:xlink="http://www.w3.org/1999/xlink" x="0px" y="0px"
	 viewBox="0 0 32 32" style="enable-background:new 0 0 32 32;" xml:space="preserve">
<style type="text/css">
	.st0{fill:#FFFFFF;}
</style>
<path class="st0" d="M15,18.1l-0.9-0.9c-0.6-0.6-1.6-0.6-2.3,0l-4.2,4.2L3,16.8L1.6,29.5c-0.1,0.7,0.5,1.3,1.2,1.2l12.7-1.4
	l-4.7-4.7l4.2-4.2C15.6,19.7,15.6,18.7,15,18.1z"/>
<path class="st0" d="M24.4,2.6c-3,3-5.9,5.9-10.4,5.9H8V16H14c4.5,0,7.4,3,10.4,5.9V2.6z M25.8,8.6V16C29.7,16,29.7,8.6,25.8,8.6z
	 M9.5,17.5"/>
</svg>
