<?xml version="1.0" encoding="utf-8"?>
<!-- Generator: Adobe Illustrator 28.0.0, SVG Export Plug-In . SVG Version: 6.00 Build 0)  -->
<svg version="1.1" id="Layer_1" xmlns="http://www.w3.org/2000/svg" xmlns:xlink="http://www.w3.org/1999/xlink" x="0px" y="0px"
	 viewBox="0 0 32 32" style="enable-background:new 0 0 32 32;" xml:space="preserve">
<style type="text/css">
	.st0{fill:#FFFFFF;}
</style>
<path class="st0" d="M3.5,1.5c-1.1,0-2.1,0.9-2.1,2.1v24.9c0,1.1,0.9,2.1,2.1,2.1h24.9c1.1,0,2.1-0.9,2.1-2.1v-25
	c0-1.1-0.9-2.1-2.1-2.1L3.5,1.5L3.5,1.5z M5.6,5.6h20.8v20.8H5.6V5.6z M16,9.8c-3.4,0-6.2,2.8-6.2,6.2s2.8,6.2,6.2,6.2
	s6.2-2.8,6.2-6.2S19.4,9.8,16,9.8z"/>
</svg>
