<?xml version="1.0" encoding="utf-8"?>
<!-- Generator: Adobe Illustrator 28.0.0, SVG Export Plug-In . SVG Version: 6.00 Build 0)  -->
<svg version="1.1" id="Layer_1" xmlns="http://www.w3.org/2000/svg" xmlns:xlink="http://www.w3.org/1999/xlink" x="0px" y="0px"
	 viewBox="0 0 32 32" style="enable-background:new 0 0 32 32;" xml:space="preserve">
<style type="text/css">
	.st0{fill:#FFFFFF;}
</style>
<path class="st0" d="M1.5,8.3v3.9h3.9V8.3H1.5z M22.8,8.3v9.7c0,3.2,2.6,5.8,5.8,5.8h1.9v-3.9h-1.9c-1.1,0-1.9-0.9-1.9-1.9V16h3.9
	v-3.9h-3.9V8.3H22.8z M7.3,12.1v11.6h3.9V16h1.9c1.1,0,1.9,0.9,1.9,1.9v5.8h3.9v-5.8c0-3.2-2.6-5.8-5.8-5.8h-1.9H7.3z M1.5,16v7.7
	h3.9V16H1.5z"/>
</svg>
