<?xml version="1.0" encoding="utf-8"?>
<!-- Generator: Adobe Illustrator 28.0.0, SVG Export Plug-In . SVG Version: 6.00 Build 0)  -->
<svg version="1.1" id="Layer_1" xmlns="http://www.w3.org/2000/svg" xmlns:xlink="http://www.w3.org/1999/xlink" x="0px" y="0px"
	 viewBox="0 0 32 32" style="enable-background:new 0 0 32 32;" xml:space="preserve">
<style type="text/css">
	.st0{fill:#FFFFFF;}
</style>
<g>
	<path class="st0" d="M15.8,3.5c0.6,0,1.1,0.1,1.5,0.2c0.4,0.1,0.7,0.2,0.9,0.4c0.2,0.1,0.4,0.4,0.5,0.7c0.1,0.3,0.2,0.6,0.2,0.8
		c0,0.2,0,0.6,0,1v18.9c0,0.5,0,0.9-0.1,1.2c0,0.3-0.1,0.6-0.3,0.9s-0.5,0.6-0.9,0.7c-0.4,0.1-1,0.2-1.7,0.2c-0.7,0-1.3-0.1-1.7-0.2
		c-0.4-0.1-0.7-0.4-0.9-0.7c-0.2-0.3-0.3-0.6-0.3-0.9c0-0.3-0.1-0.7-0.1-1.2V13.3l-0.4,0.4c-0.9,0.7-1.7,1.1-2.3,1.1
		c-0.7,0-1.4-0.3-2-1c-0.8-0.9-1.2-1.7-1.2-2.3c0-0.6,0.4-1.2,1.2-2l5.6-5l0.1-0.1C14.3,3.8,15,3.5,15.8,3.5z"/>
</g>
<path class="st0" d="M23.2,28.5H8.7c-0.9,0-1.7-0.8-1.7-1.7v-1.4c0-0.9,0.8-1.7,1.7-1.7h14.5c0.9,0,1.7,0.8,1.7,1.7v1.4
	C24.9,27.7,24.2,28.5,23.2,28.5z"/>
</svg>
