<?xml version="1.0" encoding="utf-8"?>
<!-- Generator: Adobe Illustrator 28.0.0, SVG Export Plug-In . SVG Version: 6.00 Build 0)  -->
<svg version="1.1" id="Layer_1" xmlns="http://www.w3.org/2000/svg" xmlns:xlink="http://www.w3.org/1999/xlink" x="0px" y="0px"
	 viewBox="0 0 32 32" style="enable-background:new 0 0 32 32;" xml:space="preserve">
<style type="text/css">
	.st0{fill:#FFFFFF;}
</style>
<path class="st0" d="M3,1.6L2.3,2.2c-0.4,0.4-0.4,1.2,0,1.7l3,3L2,10.2l9.2,1c0.5,0.1,0.9-0.4,0.9-0.9l-1-9.2L7.6,4.6l-3-3
	C4.1,1.2,3.4,1.2,3,1.6z"/>
<path class="st0" d="M11.7,20.1L11,19.4c-0.4-0.4-1.2-0.4-1.7,0l-3,3L3,19.1l-1,9.2c-0.1,0.5,0.4,0.9,0.9,0.9l9.2-1l-3.4-3.4l3-3
	C12.1,21.2,12.1,20.5,11.7,20.1z"/>
<path class="st0" d="M25.5,7.1c-2.5,2.5-5,5-8.8,5h-5.1v6.3h5.1c3.8,0,6.2,2.5,8.8,5V7.1z M26.7,12.1v6.2
	C29.9,18.4,29.9,12.1,26.7,12.1z"/>
</svg>
