<?xml version="1.0" encoding="utf-8"?>
<!-- Generator: Adobe Illustrator 28.0.0, SVG Export Plug-In . SVG Version: 6.00 Build 0)  -->
<svg version="1.1" id="Layer_1" xmlns="http://www.w3.org/2000/svg" xmlns:xlink="http://www.w3.org/1999/xlink" x="0px" y="0px"
	 viewBox="0 0 32 32" style="enable-background:new 0 0 32 32;" xml:space="preserve">
<style type="text/css">
	.st0{fill:#FFFFFF;}
</style>
<path class="st0" d="M5.4,7.3c-1.1,0-1.9,0.9-1.9,1.9s0.9,1.9,1.9,1.9c8.5,0,15.5,6.9,15.5,15.5c0,1.1,0.9,1.9,1.9,1.9
	s1.9-0.9,1.9-1.9C24.7,16,16,7.3,5.4,7.3z M5.4,15c-1.1,0-1.9,0.9-1.9,1.9s0.9,1.9,1.9,1.9c4.3,0,7.7,3.5,7.7,7.7
	c0,1.1,0.9,1.9,1.9,1.9s1.9-0.9,1.9-1.9C17,20.2,11.8,15,5.4,15z M5.4,22.8c-2.1,0-3.9,1.7-3.9,3.9s1.7,3.9,3.9,3.9s3.9-1.7,3.9-3.9
	S7.5,22.8,5.4,22.8z"/>
<g>
	<path class="st0" d="M23.2,8.6c-0.3,0.3-0.5,0.7-0.5,1.3c0,0.5,0.2,0.9,0.5,1.1c0.3,0.3,0.8,0.4,1.4,0.4c0.6,0,1.1-0.2,1.5-0.5
		s0.7-0.8,1-1.4c0.2-0.6,0.3-1.4,0.3-2.2h1.7c0,1.2-0.2,2.2-0.6,3.1c-0.4,0.9-0.9,1.5-1.7,2c-0.7,0.5-1.6,0.7-2.6,0.7
		c-0.7,0-1.3-0.1-1.8-0.4c-0.5-0.2-0.9-0.6-1.1-1.1s-0.4-1-0.4-1.7c0-0.9,0.3-1.6,0.8-2.1c0.5-0.5,1.2-0.8,2.1-0.9l0.6,1.3
		C24,8.2,23.5,8.3,23.2,8.6z M23.7,8.6c-0.4-0.4-0.7-0.8-0.9-1.2c-0.2-0.4-0.4-0.8-0.6-1.2c-0.1-0.4-0.2-0.9-0.2-1.3
		c0-1,0.3-1.7,0.8-2.2c0.5-0.5,1.3-0.8,2.2-0.8c1,0,1.7,0.3,2.2,0.8s0.8,1.2,0.8,2.1v0.2h-1.8V4.8c0-0.4-0.1-0.8-0.3-1
		c-0.2-0.2-0.5-0.4-0.9-0.4c-0.4,0-0.7,0.1-1,0.4c-0.2,0.3-0.3,0.6-0.3,1.1c0,0.3,0.1,0.6,0.2,0.9c0.1,0.3,0.3,0.6,0.5,1
		c0.2,0.3,0.5,0.7,0.8,1L30,13h-2.1L23.7,8.6z"/>
</g>
</svg>
