<?xml version="1.0" encoding="utf-8"?>
<!-- Generator: Adobe Illustrator 28.0.0, SVG Export Plug-In . SVG Version: 6.00 Build 0)  -->
<svg version="1.1" id="Layer_1" xmlns="http://www.w3.org/2000/svg" xmlns:xlink="http://www.w3.org/1999/xlink" x="0px" y="0px"
	 viewBox="0 0 32 32" style="enable-background:new 0 0 32 32;" xml:space="preserve">
<style type="text/css">
	.st0{fill:#FFFFFF;}
	.st1{fill:#FFFFFF;stroke:#FFFFFF;stroke-width:0.75;stroke-miterlimit:10;}
</style>
<path class="st0" d="M21.3,29.9h-0.9c-0.9,0-1.6-0.7-1.6-1.6c0-0.9,0.7-1.6,1.6-1.6h0.9c1.1,0,1.9-0.8,1.9-1.9v-3.5
	c0-2.5,1-4.2,2.3-5.2c-1.6-1.5-2.3-3.6-2.3-5.3V7.2c0-1.1-0.8-1.9-1.9-1.9h-0.9c-0.9,0-1.6-0.7-1.6-1.6s0.7-1.6,1.6-1.6h0.9
	c2.9,0,5.2,2.3,5.2,5.2v3.5c0,0.1,0,3.6,3.6,3.6c0.9,0,1.6,0.7,1.6,1.6c0,0.9-0.7,1.6-1.6,1.6c-0.1,0-3.6,0-3.6,3.6v3.5
	C26.4,27.7,24.2,29.9,21.3,29.9z M11.6,29.9h-0.9c-2.9,0-5.2-2.3-5.2-5.2v-3.5c0-3.5-3.3-3.6-3.7-3.6c-0.9,0-1.6-0.7-1.6-1.6
	c0-0.9,0.7-1.6,1.6-1.6c3.7,0,3.7-3.5,3.7-3.6V7.2c0-2.9,2.3-5.2,5.2-5.2h0.9c0.9,0,1.6,0.7,1.6,1.6s-0.7,1.6-1.6,1.6h-0.9
	c-1.1,0-1.9,0.8-1.9,1.9v3.5c0,1.7-0.7,3.8-2.3,5.3c1.3,1.1,2.3,2.8,2.3,5.2v3.5c0,1.1,0.8,1.9,1.9,1.9h0.9c0.9,0,1.6,0.7,1.6,1.6
	C13.3,29.2,12.5,29.9,11.6,29.9z"/>
<path class="st1" d="M12.5,18.1c1.2,1.9,3.7,2.5,5.6,1.4c0.8-0.5,1.4-1.2,1.7-2.1h1.4c-0.8,2.9-3.7,4.7-6.7,3.9
	c-1.3-0.3-2.4-1.1-3.1-2.2l-1.7,1.7v-4.1H14L12.5,18.1L12.5,18.1z M19.5,13.9c-1.2-1.9-3.7-2.5-5.6-1.4c-0.8,0.5-1.4,1.2-1.7,2.1
	h-1.4c0.8-2.9,3.7-4.7,6.7-3.9c1.3,0.3,2.4,1.1,3.1,2.2l1.7-1.7v4.1H18L19.5,13.9z"/>
</svg>
