<?xml version="1.0" encoding="utf-8"?>
<!-- Generator: Adobe Illustrator 28.0.0, SVG Export Plug-In . SVG Version: 6.00 Build 0)  -->
<svg version="1.1" id="Layer_1" xmlns="http://www.w3.org/2000/svg" xmlns:xlink="http://www.w3.org/1999/xlink" x="0px" y="0px"
	 viewBox="0 0 32 32" style="enable-background:new 0 0 32 32;" xml:space="preserve">
<style type="text/css">
	.st0{fill:#FFFFFF;}
	.st1{fill-opacity:0.2;}
</style>
<path class="st0" d="M12,1.8c-2.3,0-4,1.7-4,4V20H1.8v6.2c0,2.3,1.7,4,4,4H20c2.3,0,4-1.7,4-4V10h6.2v-4c0-2.3-1.7-4-4-4H12V1.8z"/>
<path class="st1" d="M12,1.8c-2.3,0-4,1.7-4,4V20H1.8v6.2c0,2.3,1.7,4,4,4c2.3,0,4-1.7,4-4V5.8c0-1.1,0.9-2,2-2s2,0.9,2,2V12H24v-2
	h-8v-4C16,3.5,14.3,1.8,12,1.8z M3.8,22.2h4v4c0,1.1-0.9,2-2,2s-2-0.9-2-2V22.2z"/>
</svg>
