<?xml version="1.0" encoding="utf-8"?>
<!-- Generator: Adobe Illustrator 28.0.0, SVG Export Plug-In . SVG Version: 6.00 Build 0)  -->
<svg version="1.1" id="Layer_1" xmlns="http://www.w3.org/2000/svg" xmlns:xlink="http://www.w3.org/1999/xlink" x="0px" y="0px"
	 viewBox="0 0 32 32" style="enable-background:new 0 0 32 32;" xml:space="preserve">
<style type="text/css">
	.st0{fill:#FFFFFF;}
</style>
<path class="st0" d="M7.7,3.6c-3.4,0-6.2,2.8-6.2,6.2S4.3,16,7.7,16s6.2-2.8,6.2-6.2S11.2,3.6,7.7,3.6z M7.7,7.2
	c1.4,0,2.6,1.2,2.6,2.6s-1.2,2.6-2.6,2.6s-2.6-1.2-2.6-2.6S6.3,7.2,7.7,7.2z M21.2,3.6h3.1L10.8,28.4H7.7L21.2,3.6z M24.3,16
	c-3.4,0-6.2,2.8-6.2,6.2s2.8,6.2,6.2,6.2s6.2-2.8,6.2-6.2S27.7,16,24.3,16z M24.3,19.6c1.4,0,2.6,1.2,2.6,2.6s-1.2,2.6-2.6,2.6
	s-2.6-1.2-2.6-2.6S22.9,19.6,24.3,19.6z"/>
</svg>
