<?xml version="1.0" encoding="utf-8"?>
<!-- Generator: Adobe Illustrator 28.0.0, SVG Export Plug-In . SVG Version: 6.00 Build 0)  -->
<svg version="1.1" id="Layer_1" xmlns="http://www.w3.org/2000/svg" xmlns:xlink="http://www.w3.org/1999/xlink" x="0px" y="0px"
	 viewBox="0 0 32 32" style="enable-background:new 0 0 32 32;" xml:space="preserve">
<style type="text/css">
	.st0{fill:#FFFFFF;stroke:#FFFFFF;stroke-width:2;stroke-miterlimit:10;}
</style>
<g>
	<g>
		<path class="st0" d="M10.7,6.2c-2.5,0-4.4,1.9-4.4,4.4S8.2,15,10.7,15s4.4-1.9,4.4-4.4S13.2,6.2,10.7,6.2z M10.7,13.5
			c-1.6,0-2.9-1.3-2.9-2.9s1.3-2.9,2.9-2.9s2.9,1.3,2.9,2.9S12.3,13.5,10.7,13.5z"/>
	</g>
</g>
<path class="st0" d="M15.3,2.7c-0.6-0.7-1.5-1-2.4-1L6.6,1.6C5.3,1.6,4,2.1,3.1,3.1C2.1,4,1.6,5.3,1.6,6.6l0.1,6.3
	c0.1,0.9,0.4,1.7,1,2.4l15,15l12.6-12.6L15.3,2.7L15.3,2.7z M17.7,28.6L3.5,14.4c-0.4-0.4-0.7-1-0.7-1.6V6.6c0-1,0.4-2,1.1-2.7
	s1.7-1.2,2.7-1.2l6.2,0.1c0.6,0,1.2,0.2,1.6,0.7l14.2,14.2L17.7,28.6z"/>
</svg>
