<?xml version="1.0" encoding="utf-8"?>
<!-- Generator: Adobe Illustrator 28.0.0, SVG Export Plug-In . SVG Version: 6.00 Build 0)  -->
<svg version="1.1" id="Layer_1" xmlns="http://www.w3.org/2000/svg" xmlns:xlink="http://www.w3.org/1999/xlink" x="0px" y="0px"
	 viewBox="0 0 32 32" style="enable-background:new 0 0 32 32;" xml:space="preserve">
<style type="text/css">
	.st0{fill:#A02423;}
	.st1{fill:#FFFFFF;}
</style>
<path class="st0" d="M28.2,29.9l-1.7,1.3c-0.9,0.7-2.2,0.6-2.9-0.4L3.4,5c-0.7-0.9-0.6-2.2,0.4-3l1.7-1.3c0.9-0.7,2.2-0.6,2.9,0.4
	L28.6,27C29.3,27.9,29.2,29.2,28.2,29.9z"/>
<path class="st1" d="M2.1,28.2l-1.3-1.7c-0.7-0.9-0.6-2.2,0.4-2.9L27,3.4c0.9-0.7,2.2-0.6,3,0.4l1.3,1.7c0.7,0.9,0.6,2.2-0.4,2.9
	L5,28.6C4.1,29.3,2.8,29.2,2.1,28.2z"/>
</svg>
