<?xml version="1.0" encoding="utf-8"?>
<!-- Generator: Adobe Illustrator 28.0.0, SVG Export Plug-In . SVG Version: 6.00 Build 0)  -->
<svg version="1.1" id="Layer_1" xmlns="http://www.w3.org/2000/svg" xmlns:xlink="http://www.w3.org/1999/xlink" x="0px" y="0px"
	 viewBox="0 0 32 32" style="enable-background:new 0 0 32 32;" xml:space="preserve">
<style type="text/css">
	.st0{fill:#FFFFFF;}
</style>
<path class="st0" d="M1.6,8.6V23h3.6c1.8,0,3.5-0.9,4.5-2.4c1.7,2.5,5,3.2,7.5,1.5c0.2-0.1,0.4-0.3,0.6-0.5c2.2,2,5.7,1.8,7.6-0.4
	c0.2-0.2,0.3-0.4,0.5-0.6c1,1.5,2.7,2.4,4.5,2.4v-3.6c-1,0-1.8-0.8-1.8-1.8v-9H25v5c-2.1-1.8-5.2-1.8-7.2,0c-2.2-2-5.7-1.8-7.6,0.4
	c-0.2,0.2-0.3,0.4-0.5,0.6c-1-1.5-2.7-2.4-4.5-2.4V8.6H1.6z M5.2,15.8c1,0,1.8,0.8,1.8,1.8s-0.8,1.8-1.8,1.8V15.8z M14.2,15.8
	c1,0,1.8,0.8,1.8,1.8s-0.8,1.8-1.8,1.8s-1.8-0.8-1.8-1.8S13.2,15.8,14.2,15.8z M21.4,15.8c1,0,1.8,0.8,1.8,1.8s-0.8,1.8-1.8,1.8
	s-1.8-0.8-1.8-1.8S20.4,15.8,21.4,15.8z"/>
</svg>
