<?xml version="1.0" encoding="utf-8"?>
<!-- Generator: Adobe Illustrator 28.0.0, SVG Export Plug-In . SVG Version: 6.00 Build 0)  -->
<svg version="1.1" id="Layer_1" xmlns="http://www.w3.org/2000/svg" xmlns:xlink="http://www.w3.org/1999/xlink" x="0px" y="0px"
	 viewBox="0 0 16 16" style="enable-background:new 0 0 16 16;" xml:space="preserve">
<style type="text/css">
	.st0{fill:#FFFFFF;}
</style>
<path class="st0" d="M14.5,0.1L0.1,1.7L5.4,7l-4.7,4.7c-0.7,0.9-0.7,2,0,2.7l1,1c0.7,0.7,1.8,0.7,2.6,0l4.8-4.8l5.2,5.2l1.6-14.2
	C16,0.7,15.3,0,14.5,0.1z M13.7,3.8L3.6,13.9c-0.4,0.4-1.1,0.4-1.5,0c-0.4-0.4-0.4-1.1,0-1.5L12.3,2.3c0.4-0.4,1.1-0.4,1.5,0
	C14.2,2.7,14.2,3.4,13.7,3.8z"/>
</svg>
