<?xml version="1.0" encoding="utf-8"?>
<!-- Generator: Adobe Illustrator 28.0.0, SVG Export Plug-In . SVG Version: 6.00 Build 0)  -->
<svg version="1.1" id="Layer_1" xmlns="http://www.w3.org/2000/svg" xmlns:xlink="http://www.w3.org/1999/xlink" x="0px" y="0px"
	 viewBox="0 0 32 32" style="enable-background:new 0 0 32 32;" xml:space="preserve">
<style type="text/css">
	.st0{fill:#FFFFFF;}
</style>
<path class="st0" d="M26,2H6C3.8,2,2,3.8,2,6v20c0,2.2,1.8,4,4,4h20c2.2,0,4-1.8,4-4V6C30,3.8,28.2,2,26,2z M28,17.2L14,28.4v-9.2
	H5.6c-1.3-0.1-2.3-1.1-2.3-2.3v-1.8c0-1.2,1-2.2,2.3-2.3H14V3.6l14,11.2C28.8,15.4,28.8,16.6,28,17.2z"/>
</svg>
