<?xml version="1.0" encoding="utf-8"?>
<!-- Generator: Adobe Illustrator 28.0.0, SVG Export Plug-In . SVG Version: 6.00 Build 0)  -->
<svg version="1.1" id="Layer_1" xmlns="http://www.w3.org/2000/svg" xmlns:xlink="http://www.w3.org/1999/xlink" x="0px" y="0px"
	 viewBox="0 0 32 32" style="enable-background:new 0 0 32 32;" xml:space="preserve">
<style type="text/css">
	.st0{fill:#FFC941;}
</style>
<path class="st0" fill="#FFC941" d="M13.6,1.5L1.5,13.6c-1.3,1.3-1.3,3.5,0,4.9l12.1,12.1c1.3,1.3,3.5,1.3,4.9,0l12.1-12.1c1.3-1.3,1.3-3.5,0-4.9
	L18.4,1.5C17.1,0.1,14.9,0.1,13.6,1.5z M24,9.4l-1.7,15.3l-5.5-5.5l-5.1,5.1c-0.8,0.7-2.1,0.7-2.8,0l-1.1-1.1
	c-0.7-0.7-0.7-1.9,0-2.8l5.1-5.1L7.3,9.7L22.6,8C23.4,7.9,24.1,8.6,24,9.4z"/>
</svg>
