<?xml version="1.0" encoding="utf-8"?>
<!-- Generator: Adobe Illustrator 28.0.0, SVG Export Plug-In . SVG Version: 6.00 Build 0)  -->
<svg version="1.1" id="Layer_1" xmlns="http://www.w3.org/2000/svg" xmlns:xlink="http://www.w3.org/1999/xlink" x="0px" y="0px"
	 viewBox="0 0 128 32" style="enable-background:new 0 0 128 32;" xml:space="preserve">
<style type="text/css">
	.st0{fill:#FFFFFF;}
</style>
<g>
	<path class="st0" d="M24.2,18.3l-0.8,2.5c0,0,0,0.1,0.1,0.1l2.4-1.1l0.1-0.1L24.2,18.3L24.2,18.3z"/>
	<path class="st0" d="M38.2,4.5c-0.2-0.2-0.5-0.3-0.7-0.3c-0.3,0-0.6,0.1-0.8,0.4L25.9,16.3c0,0,0,0,0,0.1l1.6,1.4c0,0,0,0,0.1,0
		L38.3,6.1C38.7,5.7,38.7,5,38.2,4.5L38.2,4.5z"/>
	<path class="st0" d="M81.7,9.7H74c0,0,0,0,0,0v14.7c0,0,0,0,0,0h7.6c0.9,0,1-0.2,1-1V10.7C82.7,9.9,82.5,9.7,81.7,9.7z"/>
	<path class="st0" d="M119,1H9C4.6,1,1,4.6,1,9v14c0,4.4,3.6,8,8,8h110c4.4,0,8-3.6,8-8V9C127,4.6,123.4,1,119,1z M38.7,24.6
		c0,3.1-2.5,5.6-5.6,5.6H18.4c-3.1,0-5.6-2.5-5.6-5.6V10c0-3.1,2.5-5.6,5.6-5.6H29c0.7,0,1.2,0.5,1.2,1.2S29.7,6.9,29,6.9H18.4
		c-1.7,0-3.2,1.4-3.2,3.2v14.6c0,1.7,1.4,3.2,3.2,3.2h14.7c1.7,0,3.2-1.4,3.2-3.2V14.3c0-0.7,0.5-1.2,1.2-1.2s1.2,0.5,1.2,1.2V24.6z
		 M40.1,7.8L27.5,21.6c-0.1,0.1-0.3,0.2-0.4,0.3l-4.3,1.9c-0.2,0.1-0.4,0.1-0.7,0.1h0c-0.5,0-1.1-0.3-1.4-0.7
		c-0.3-0.4-0.4-1-0.2-1.5l1.5-4.5c0.1-0.2,0.1-0.3,0.3-0.5L34.8,3c0.3-0.4,0.7-0.7,1.2-0.9c1.4-0.6,2.9-0.3,3.9,0.6
		C41.3,4.1,41.4,6.3,40.1,7.8z M64.9,8.9c0,0.4-0.4,0.8-0.8,0.8h-8.9c0,0,0,0,0,0v5.9c0,0,0,0,0,0h7c0.4,0,0.8,0.4,0.8,0.8v1.1
		c0,0.4-0.4,0.8-0.8,0.8h-7c0,0,0,0,0,0v6c0,0,0,0,0,0h8.9c0.4,0,0.8,0.4,0.8,0.8v1.1c0,0.4-0.4,0.8-0.8,0.8h-11
		c-0.4,0-0.8-0.4-0.8-0.8V7.8c0-0.4,0.4-0.8,0.8-0.8h11c0.4,0,0.8,0.4,0.8,0.8V8.9z M85.5,24.2c0,2.5-1,3-3.1,3H71.9
		c-0.4,0-0.8-0.4-0.8-0.8V7.8c0-0.4,0.4-0.8,0.8-0.8h10.5c2.1,0,3.1,0.5,3.1,3V24.2z M95.4,26.4c0,0.4-0.4,0.8-0.8,0.8h-1.3
		c-0.4,0-0.8-0.4-0.8-0.8V7.8c0-0.4,0.4-0.8,0.8-0.8h1.3c0.4,0,0.8,0.4,0.8,0.8V26.4z M114.8,8.9c0,0.4-0.4,0.8-0.8,0.8h-4.6
		c0,0,0,0,0,0v16.6c0,0.4-0.4,0.8-0.8,0.8h-1.3c-0.4,0-0.8-0.4-0.8-0.8V9.8c0,0,0,0,0,0h-4.6c-0.4,0-0.8-0.4-0.8-0.8V7.8
		c0-0.4,0.4-0.8,0.8-0.8H114c0.4,0,0.8,0.4,0.8,0.8V8.9z"/>
</g>
</svg>
