<?xml version="1.0" encoding="utf-8"?>
<!-- Generator: Adobe Illustrator 28.0.0, SVG Export Plug-In . SVG Version: 6.00 Build 0)  -->
<svg version="1.1" id="Layer_1" xmlns="http://www.w3.org/2000/svg" xmlns:xlink="http://www.w3.org/1999/xlink" x="0px" y="0px"
	 viewBox="0 0 64 64" style="enable-background:new 0 0 64 64;" xml:space="preserve">
<style type="text/css">
	.st0{fill:#FFFFFF;}
</style>
<path id="path3206" class="st0" d="M49.3,35.8H14.7c-0.9,0-1.6,0.7-1.6,1.6v0.6c0,0.9,0.7,1.6,1.6,1.6h34.5c0.9,0,1.6-0.7,1.6-1.6
	v-0.6C50.9,36.5,50.1,35.8,49.3,35.8z M49.3,43.3H14.7c-0.9,0-1.6,0.7-1.6,1.6v0.6c0,0.9,0.7,1.6,1.6,1.6h34.5
	c0.9,0,1.6-0.7,1.6-1.6v-0.6C50.9,44,50.1,43.3,49.3,43.3z M49.3,50.9H14.7c-0.9,0-1.6,0.7-1.6,1.6V53c0,0.9,0.7,1.6,1.6,1.6h34.5
	c0.9,0,1.6-0.7,1.6-1.6v-0.6C50.9,51.6,50.1,50.9,49.3,50.9z M50.9,1.8h-1.8c-1.1,0-2,0.9-2,2v20.5c0,1.1-0.9,2-2,2H18.9
	c-1.1,0-2-0.9-2-2V3.8c0-1.1-0.9-2-2-2H6.8c-2.8,0-5,2.2-5,5v50.3c0,2.8,2.2,5,5,5h50.3c2.8,0,5-2.2,5-5v-44L50.9,1.8z M53,58.4H11
	c-0.9,0-1.6-0.7-1.6-1.6V33.6c0-0.9,0.7-1.6,1.6-1.6h42c0.9,0,1.6,0.7,1.6,1.6v23.2C54.6,57.7,53.9,58.4,53,58.4z M41.3,5.6h-3.5
	c-1.1,0-2,0.9-2,2v12.9c0,1.1,0.9,2,2,2h3.5c1.1,0,2-0.9,2-2V7.6C43.3,6.5,42.4,5.6,41.3,5.6z"/>
</svg>
